mtllib tractorv2.mtl
# Tractor V4 - normales corregidas (outward) para que se vea bien en Unity
v 4.0000 4.1000 3.5000
v 25.0000 4.1000 3.5000
v 25.0000 6.3000 3.5000
v 4.0000 6.3000 3.5000
v 25.0000 4.1000 12.5000
v 4.0000 4.1000 12.5000
v 4.0000 6.3000 12.5000
v 25.0000 6.3000 12.5000
v 4.0000 4.1000 12.5000
v 25.0000 4.1000 12.5000
v 25.0000 4.1000 3.5000
v 4.0000 4.1000 3.5000
v 4.0000 6.3000 3.5000
v 25.0000 6.3000 3.5000
v 25.0000 6.3000 12.5000
v 4.0000 6.3000 12.5000
v 4.0000 4.1000 12.5000
v 4.0000 4.1000 3.5000
v 4.0000 6.3000 3.5000
v 4.0000 6.3000 12.5000
v 25.0000 4.1000 3.5000
v 25.0000 4.1000 12.5000
v 25.0000 6.3000 12.5000
v 25.0000 6.3000 3.5000
v 0.0000 6.3000 2.5000
v 11.0000 6.3000 3.6000
v 11.0000 12.3000 3.6000
v 0.0000 12.3000 2.5000
v 11.0000 6.3000 12.4000
v 0.0000 6.3000 13.5000
v 0.0000 12.3000 13.5000
v 11.0000 12.3000 12.4000
v 0.0000 6.3000 13.5000
v 11.0000 6.3000 12.4000
v 11.0000 6.3000 3.6000
v 0.0000 6.3000 2.5000
v 0.0000 12.3000 2.5000
v 11.0000 12.3000 3.6000
v 11.0000 12.3000 12.4000
v 0.0000 12.3000 13.5000
v 0.0000 6.3000 13.5000
v 0.0000 6.3000 2.5000
v 0.0000 12.3000 2.5000
v 0.0000 12.3000 13.5000
v 11.0000 6.3000 3.6000
v 11.0000 6.3000 12.4000
v 11.0000 12.3000 12.4000
v 11.0000 12.3000 3.6000
v -0.4500 6.7000 3.9300
v 0.0500 6.7000 3.9300
v 0.0500 11.7000 3.9300
v -0.4500 11.7000 3.9300
v 0.0500 6.7000 12.0700
v -0.4500 6.7000 12.0700
v -0.4500 11.7000 12.0700
v 0.0500 11.7000 12.0700
v -0.4500 6.7000 12.0700
v 0.0500 6.7000 12.0700
v 0.0500 6.7000 3.9300
v -0.4500 6.7000 3.9300
v -0.4500 11.7000 3.9300
v 0.0500 11.7000 3.9300
v 0.0500 11.7000 12.0700
v -0.4500 11.7000 12.0700
v -0.4500 6.7000 12.0700
v -0.4500 6.7000 3.9300
v -0.4500 11.7000 3.9300
v -0.4500 11.7000 12.0700
v 0.0500 6.7000 3.9300
v 0.0500 6.7000 12.0700
v 0.0500 11.7000 12.0700
v 0.0500 11.7000 3.9300
v -0.3250 9.2000 2.4900
v 0.0250 9.2000 2.4900
v 0.0250 10.2000 2.4900
v -0.3250 10.2000 2.4900
v 0.0250 9.2000 3.3900
v -0.3250 9.2000 3.3900
v -0.3250 10.2000 3.3900
v 0.0250 10.2000 3.3900
v -0.3250 9.2000 3.3900
v 0.0250 9.2000 3.3900
v 0.0250 9.2000 2.4900
v -0.3250 9.2000 2.4900
v -0.3250 10.2000 2.4900
v 0.0250 10.2000 2.4900
v 0.0250 10.2000 3.3900
v -0.3250 10.2000 3.3900
v -0.3250 9.2000 3.3900
v -0.3250 9.2000 2.4900
v -0.3250 10.2000 2.4900
v -0.3250 10.2000 3.3900
v 0.0250 9.2000 2.4900
v 0.0250 9.2000 3.3900
v 0.0250 10.2000 3.3900
v 0.0250 10.2000 2.4900
v -0.3250 9.2000 12.6100
v 0.0250 9.2000 12.6100
v 0.0250 10.2000 12.6100
v -0.3250 10.2000 12.6100
v 0.0250 9.2000 13.5100
v -0.3250 9.2000 13.5100
v -0.3250 10.2000 13.5100
v 0.0250 10.2000 13.5100
v -0.3250 9.2000 13.5100
v 0.0250 9.2000 13.5100
v 0.0250 9.2000 12.6100
v -0.3250 9.2000 12.6100
v -0.3250 10.2000 12.6100
v 0.0250 10.2000 12.6100
v 0.0250 10.2000 13.5100
v -0.3250 10.2000 13.5100
v -0.3250 9.2000 13.5100
v -0.3250 9.2000 12.6100
v -0.3250 10.2000 12.6100
v -0.3250 10.2000 13.5100
v 0.0250 9.2000 12.6100
v 0.0250 9.2000 13.5100
v 0.0250 10.2000 13.5100
v 0.0250 10.2000 12.6100
v 0.0000 6.7000 4.9200
v 0.6000 6.7000 4.9200
v 0.6000 8.3000 4.9200
v 0.0000 8.3000 4.9200
v 0.6000 6.7000 11.0800
v 0.0000 6.7000 11.0800
v 0.0000 8.3000 11.0800
v 0.6000 8.3000 11.0800
v 0.0000 6.7000 11.0800
v 0.6000 6.7000 11.0800
v 0.6000 6.7000 4.9200
v 0.0000 6.7000 4.9200
v 0.0000 8.3000 4.9200
v 0.6000 8.3000 4.9200
v 0.6000 8.3000 11.0800
v 0.0000 8.3000 11.0800
v 0.0000 6.7000 11.0800
v 0.0000 6.7000 4.9200
v 0.0000 8.3000 4.9200
v 0.0000 8.3000 11.0800
v 0.6000 6.7000 4.9200
v 0.6000 6.7000 11.0800
v 0.6000 8.3000 11.0800
v 0.6000 8.3000 4.9200
v 10.3000 4.8000 12.0000
v 10.3000 13.8000 12.0000
v 10.1928 4.8000 12.4000
v 10.1928 13.8000 12.4000
v 9.9000 4.8000 12.6928
v 9.9000 13.8000 12.6928
v 9.5000 4.8000 12.8000
v 9.5000 13.8000 12.8000
v 9.1000 4.8000 12.6928
v 9.1000 13.8000 12.6928
v 8.8072 4.8000 12.4000
v 8.8072 13.8000 12.4000
v 8.7000 4.8000 12.0000
v 8.7000 13.8000 12.0000
v 8.8072 4.8000 11.6000
v 8.8072 13.8000 11.6000
v 9.1000 4.8000 11.3072
v 9.1000 13.8000 11.3072
v 9.5000 4.8000 11.2000
v 9.5000 13.8000 11.2000
v 9.9000 4.8000 11.3072
v 9.9000 13.8000 11.3072
v 10.1928 4.8000 11.6000
v 10.1928 13.8000 11.6000
v 10.3000 4.8000 12.0000
v 10.3000 13.8000 12.0000
v 10.3000 4.8000 12.0000
v 10.3000 13.8000 12.0000
v 10.1928 4.8000 12.4000
v 10.1928 13.8000 12.4000
v 9.9000 4.8000 12.6928
v 9.9000 13.8000 12.6928
v 9.5000 4.8000 12.8000
v 9.5000 13.8000 12.8000
v 9.1000 4.8000 12.6928
v 9.1000 13.8000 12.6928
v 8.8072 4.8000 12.4000
v 8.8072 13.8000 12.4000
v 8.7000 4.8000 12.0000
v 8.7000 13.8000 12.0000
v 8.8072 4.8000 11.6000
v 8.8072 13.8000 11.6000
v 9.1000 4.8000 11.3072
v 9.1000 13.8000 11.3072
v 9.5000 4.8000 11.2000
v 9.5000 13.8000 11.2000
v 9.9000 4.8000 11.3072
v 9.9000 13.8000 11.3072
v 10.1928 4.8000 11.6000
v 10.1928 13.8000 11.6000
v 10.3000 4.8000 12.0000
v 10.3000 13.8000 12.0000
v 12.5000 6.3000 2.2500
v 22.5000 6.3000 2.2500
v 22.5000 15.8000 2.2500
v 12.5000 15.8000 2.2500
v 22.5000 6.3000 13.7500
v 12.5000 6.3000 13.7500
v 12.5000 15.8000 13.7500
v 22.5000 15.8000 13.7500
v 12.5000 6.3000 13.7500
v 22.5000 6.3000 13.7500
v 22.5000 6.3000 2.2500
v 12.5000 6.3000 2.2500
v 12.5000 15.8000 2.2500
v 22.5000 15.8000 2.2500
v 22.5000 15.8000 13.7500
v 12.5000 15.8000 13.7500
v 12.5000 6.3000 13.7500
v 12.5000 6.3000 2.2500
v 12.5000 15.8000 2.2500
v 12.5000 15.8000 13.7500
v 22.5000 6.3000 2.2500
v 22.5000 6.3000 13.7500
v 22.5000 15.8000 13.7500
v 22.5000 15.8000 2.2500
v 11.7500 15.8500 0.0000
v 23.2500 15.8500 0.0000
v 23.2500 16.7500 0.0000
v 11.7500 16.7500 0.0000
v 23.2500 15.8500 16.0000
v 11.7500 15.8500 16.0000
v 11.7500 16.7500 16.0000
v 23.2500 16.7500 16.0000
v 11.7500 15.8500 16.0000
v 23.2500 15.8500 16.0000
v 23.2500 15.8500 0.0000
v 11.7500 15.8500 0.0000
v 11.7500 16.7500 0.0000
v 23.2500 16.7500 0.0000
v 23.2500 16.7500 16.0000
v 11.7500 16.7500 16.0000
v 11.7500 15.8500 16.0000
v 11.7500 15.8500 0.0000
v 11.7500 16.7500 0.0000
v 11.7500 16.7500 16.0000
v 23.2500 15.8500 0.0000
v 23.2500 15.8500 16.0000
v 23.2500 16.7500 16.0000
v 23.2500 16.7500 0.0000
v 12.3450 9.3400 3.8600
v 12.4950 9.3400 3.8600
v 12.4950 15.0400 3.8600
v 12.3450 15.0400 3.8600
v 12.4950 9.3400 12.1400
v 12.3450 9.3400 12.1400
v 12.3450 15.0400 12.1400
v 12.4950 15.0400 12.1400
v 12.3450 9.3400 12.1400
v 12.4950 9.3400 12.1400
v 12.4950 9.3400 3.8600
v 12.3450 9.3400 3.8600
v 12.3450 15.0400 3.8600
v 12.4950 15.0400 3.8600
v 12.4950 15.0400 12.1400
v 12.3450 15.0400 12.1400
v 12.3450 9.3400 12.1400
v 12.3450 9.3400 3.8600
v 12.3450 15.0400 3.8600
v 12.3450 15.0400 12.1400
v 12.4950 9.3400 3.8600
v 12.4950 9.3400 12.1400
v 12.4950 15.0400 12.1400
v 12.4950 15.0400 3.8600
v 13.5000 9.6250 2.0950
v 21.5000 9.6250 2.0950
v 21.5000 14.7550 2.0950
v 13.5000 14.7550 2.0950
v 21.5000 9.6250 2.2450
v 13.5000 9.6250 2.2450
v 13.5000 14.7550 2.2450
v 21.5000 14.7550 2.2450
v 13.5000 9.6250 2.2450
v 21.5000 9.6250 2.2450
v 21.5000 9.6250 2.0950
v 13.5000 9.6250 2.0950
v 13.5000 14.7550 2.0950
v 21.5000 14.7550 2.0950
v 21.5000 14.7550 2.2450
v 13.5000 14.7550 2.2450
v 13.5000 9.6250 2.2450
v 13.5000 9.6250 2.0950
v 13.5000 14.7550 2.0950
v 13.5000 14.7550 2.2450
v 21.5000 9.6250 2.0950
v 21.5000 9.6250 2.2450
v 21.5000 14.7550 2.2450
v 21.5000 14.7550 2.0950
v 13.5000 9.6250 13.7550
v 21.5000 9.6250 13.7550
v 21.5000 14.7550 13.7550
v 13.5000 14.7550 13.7550
v 21.5000 9.6250 13.9050
v 13.5000 9.6250 13.9050
v 13.5000 14.7550 13.9050
v 21.5000 14.7550 13.9050
v 13.5000 9.6250 13.9050
v 21.5000 9.6250 13.9050
v 21.5000 9.6250 13.7550
v 13.5000 9.6250 13.7550
v 13.5000 14.7550 13.7550
v 21.5000 14.7550 13.7550
v 21.5000 14.7550 13.9050
v 13.5000 14.7550 13.9050
v 13.5000 9.6250 13.9050
v 13.5000 9.6250 13.7550
v 13.5000 14.7550 13.7550
v 13.5000 14.7550 13.9050
v 21.5000 9.6250 13.7550
v 21.5000 9.6250 13.9050
v 21.5000 14.7550 13.9050
v 21.5000 14.7550 13.7550
v 22.5050 9.7675 4.2625
v 22.6550 9.7675 4.2625
v 22.6550 14.6125 4.2625
v 22.5050 14.6125 4.2625
v 22.6550 9.7675 11.7375
v 22.5050 9.7675 11.7375
v 22.5050 14.6125 11.7375
v 22.6550 14.6125 11.7375
v 22.5050 9.7675 11.7375
v 22.6550 9.7675 11.7375
v 22.6550 9.7675 4.2625
v 22.5050 9.7675 4.2625
v 22.5050 14.6125 4.2625
v 22.6550 14.6125 4.2625
v 22.6550 14.6125 11.7375
v 22.5050 14.6125 11.7375
v 22.5050 9.7675 11.7375
v 22.5050 9.7675 4.2625
v 22.5050 14.6125 4.2625
v 22.5050 14.6125 11.7375
v 22.6550 9.7675 4.2625
v 22.6550 9.7675 11.7375
v 22.6550 14.6125 11.7375
v 22.6550 14.6125 4.2625
v 8.3000 3.3000 -0.7000
v 8.3000 3.3000 3.7000
v 8.1876 4.1541 -0.7000
v 8.1876 4.1541 3.7000
v 7.8579 4.9500 -0.7000
v 7.8579 4.9500 3.7000
v 7.3335 5.6335 -0.7000
v 7.3335 5.6335 3.7000
v 6.6500 6.1579 -0.7000
v 6.6500 6.1579 3.7000
v 5.8541 6.4876 -0.7000
v 5.8541 6.4876 3.7000
v 5.0000 6.6000 -0.7000
v 5.0000 6.6000 3.7000
v 4.1459 6.4876 -0.7000
v 4.1459 6.4876 3.7000
v 3.3500 6.1579 -0.7000
v 3.3500 6.1579 3.7000
v 2.6665 5.6335 -0.7000
v 2.6665 5.6335 3.7000
v 2.1421 4.9500 -0.7000
v 2.1421 4.9500 3.7000
v 1.8124 4.1541 -0.7000
v 1.8124 4.1541 3.7000
v 1.7000 3.3000 -0.7000
v 1.7000 3.3000 3.7000
v 1.8124 2.4459 -0.7000
v 1.8124 2.4459 3.7000
v 2.1421 1.6500 -0.7000
v 2.1421 1.6500 3.7000
v 2.6665 0.9665 -0.7000
v 2.6665 0.9665 3.7000
v 3.3500 0.4421 -0.7000
v 3.3500 0.4421 3.7000
v 4.1459 0.1124 -0.7000
v 4.1459 0.1124 3.7000
v 5.0000 0.0000 -0.7000
v 5.0000 0.0000 3.7000
v 5.8541 0.1124 -0.7000
v 5.8541 0.1124 3.7000
v 6.6500 0.4421 -0.7000
v 6.6500 0.4421 3.7000
v 7.3335 0.9665 -0.7000
v 7.3335 0.9665 3.7000
v 7.8579 1.6500 -0.7000
v 7.8579 1.6500 3.7000
v 8.1876 2.4459 -0.7000
v 8.1876 2.4459 3.7000
v 8.3000 3.3000 -0.7000
v 8.3000 3.3000 3.7000
v 8.3000 3.3000 -0.7000
v 8.3000 3.3000 3.7000
v 8.1876 4.1541 -0.7000
v 8.1876 4.1541 3.7000
v 7.8579 4.9500 -0.7000
v 7.8579 4.9500 3.7000
v 7.3335 5.6335 -0.7000
v 7.3335 5.6335 3.7000
v 6.6500 6.1579 -0.7000
v 6.6500 6.1579 3.7000
v 5.8541 6.4876 -0.7000
v 5.8541 6.4876 3.7000
v 5.0000 6.6000 -0.7000
v 5.0000 6.6000 3.7000
v 4.1459 6.4876 -0.7000
v 4.1459 6.4876 3.7000
v 3.3500 6.1579 -0.7000
v 3.3500 6.1579 3.7000
v 2.6665 5.6335 -0.7000
v 2.6665 5.6335 3.7000
v 2.1421 4.9500 -0.7000
v 2.1421 4.9500 3.7000
v 1.8124 4.1541 -0.7000
v 1.8124 4.1541 3.7000
v 1.7000 3.3000 -0.7000
v 1.7000 3.3000 3.7000
v 1.8124 2.4459 -0.7000
v 1.8124 2.4459 3.7000
v 2.1421 1.6500 -0.7000
v 2.1421 1.6500 3.7000
v 2.6665 0.9665 -0.7000
v 2.6665 0.9665 3.7000
v 3.3500 0.4421 -0.7000
v 3.3500 0.4421 3.7000
v 4.1459 0.1124 -0.7000
v 4.1459 0.1124 3.7000
v 5.0000 0.0000 -0.7000
v 5.0000 0.0000 3.7000
v 5.8541 0.1124 -0.7000
v 5.8541 0.1124 3.7000
v 6.6500 0.4421 -0.7000
v 6.6500 0.4421 3.7000
v 7.3335 0.9665 -0.7000
v 7.3335 0.9665 3.7000
v 7.8579 1.6500 -0.7000
v 7.8579 1.6500 3.7000
v 8.1876 2.4459 -0.7000
v 8.1876 2.4459 3.7000
v 8.3000 3.3000 -0.7000
v 8.3000 3.3000 3.7000
v 8.3000 3.3000 12.3000
v 8.3000 3.3000 16.7000
v 8.1876 4.1541 12.3000
v 8.1876 4.1541 16.7000
v 7.8579 4.9500 12.3000
v 7.8579 4.9500 16.7000
v 7.3335 5.6335 12.3000
v 7.3335 5.6335 16.7000
v 6.6500 6.1579 12.3000
v 6.6500 6.1579 16.7000
v 5.8541 6.4876 12.3000
v 5.8541 6.4876 16.7000
v 5.0000 6.6000 12.3000
v 5.0000 6.6000 16.7000
v 4.1459 6.4876 12.3000
v 4.1459 6.4876 16.7000
v 3.3500 6.1579 12.3000
v 3.3500 6.1579 16.7000
v 2.6665 5.6335 12.3000
v 2.6665 5.6335 16.7000
v 2.1421 4.9500 12.3000
v 2.1421 4.9500 16.7000
v 1.8124 4.1541 12.3000
v 1.8124 4.1541 16.7000
v 1.7000 3.3000 12.3000
v 1.7000 3.3000 16.7000
v 1.8124 2.4459 12.3000
v 1.8124 2.4459 16.7000
v 2.1421 1.6500 12.3000
v 2.1421 1.6500 16.7000
v 2.6665 0.9665 12.3000
v 2.6665 0.9665 16.7000
v 3.3500 0.4421 12.3000
v 3.3500 0.4421 16.7000
v 4.1459 0.1124 12.3000
v 4.1459 0.1124 16.7000
v 5.0000 0.0000 12.3000
v 5.0000 0.0000 16.7000
v 5.8541 0.1124 12.3000
v 5.8541 0.1124 16.7000
v 6.6500 0.4421 12.3000
v 6.6500 0.4421 16.7000
v 7.3335 0.9665 12.3000
v 7.3335 0.9665 16.7000
v 7.8579 1.6500 12.3000
v 7.8579 1.6500 16.7000
v 8.1876 2.4459 12.3000
v 8.1876 2.4459 16.7000
v 8.3000 3.3000 12.3000
v 8.3000 3.3000 16.7000
v 8.3000 3.3000 12.3000
v 8.3000 3.3000 16.7000
v 8.1876 4.1541 12.3000
v 8.1876 4.1541 16.7000
v 7.8579 4.9500 12.3000
v 7.8579 4.9500 16.7000
v 7.3335 5.6335 12.3000
v 7.3335 5.6335 16.7000
v 6.6500 6.1579 12.3000
v 6.6500 6.1579 16.7000
v 5.8541 6.4876 12.3000
v 5.8541 6.4876 16.7000
v 5.0000 6.6000 12.3000
v 5.0000 6.6000 16.7000
v 4.1459 6.4876 12.3000
v 4.1459 6.4876 16.7000
v 3.3500 6.1579 12.3000
v 3.3500 6.1579 16.7000
v 2.6665 5.6335 12.3000
v 2.6665 5.6335 16.7000
v 2.1421 4.9500 12.3000
v 2.1421 4.9500 16.7000
v 1.8124 4.1541 12.3000
v 1.8124 4.1541 16.7000
v 1.7000 3.3000 12.3000
v 1.7000 3.3000 16.7000
v 1.8124 2.4459 12.3000
v 1.8124 2.4459 16.7000
v 2.1421 1.6500 12.3000
v 2.1421 1.6500 16.7000
v 2.6665 0.9665 12.3000
v 2.6665 0.9665 16.7000
v 3.3500 0.4421 12.3000
v 3.3500 0.4421 16.7000
v 4.1459 0.1124 12.3000
v 4.1459 0.1124 16.7000
v 5.0000 0.0000 12.3000
v 5.0000 0.0000 16.7000
v 5.8541 0.1124 12.3000
v 5.8541 0.1124 16.7000
v 6.6500 0.4421 12.3000
v 6.6500 0.4421 16.7000
v 7.3335 0.9665 12.3000
v 7.3335 0.9665 16.7000
v 7.8579 1.6500 12.3000
v 7.8579 1.6500 16.7000
v 8.1876 2.4459 12.3000
v 8.1876 2.4459 16.7000
v 8.3000 3.3000 12.3000
v 8.3000 3.3000 16.7000
v 2.1950 5.4000 -1.0000
v 7.8050 5.4000 -1.0000
v 7.8050 6.6000 -1.0000
v 2.1950 6.6000 -1.0000
v 7.8050 5.4000 4.0000
v 2.1950 5.4000 4.0000
v 2.1950 6.6000 4.0000
v 7.8050 6.6000 4.0000
v 2.1950 5.4000 4.0000
v 7.8050 5.4000 4.0000
v 7.8050 5.4000 -1.0000
v 2.1950 5.4000 -1.0000
v 2.1950 6.6000 -1.0000
v 7.8050 6.6000 -1.0000
v 7.8050 6.6000 4.0000
v 2.1950 6.6000 4.0000
v 2.1950 5.4000 4.0000
v 2.1950 5.4000 -1.0000
v 2.1950 6.6000 -1.0000
v 2.1950 6.6000 4.0000
v 7.8050 5.4000 -1.0000
v 7.8050 5.4000 4.0000
v 7.8050 6.6000 4.0000
v 7.8050 6.6000 -1.0000
v 2.1950 5.4000 12.0000
v 7.8050 5.4000 12.0000
v 7.8050 6.6000 12.0000
v 2.1950 6.6000 12.0000
v 7.8050 5.4000 17.0000
v 2.1950 5.4000 17.0000
v 2.1950 6.6000 17.0000
v 7.8050 6.6000 17.0000
v 2.1950 5.4000 17.0000
v 7.8050 5.4000 17.0000
v 7.8050 5.4000 12.0000
v 2.1950 5.4000 12.0000
v 2.1950 6.6000 12.0000
v 7.8050 6.6000 12.0000
v 7.8050 6.6000 17.0000
v 2.1950 6.6000 17.0000
v 2.1950 5.4000 17.0000
v 2.1950 5.4000 12.0000
v 2.1950 6.6000 12.0000
v 2.1950 6.6000 17.0000
v 7.8050 5.4000 12.0000
v 7.8050 5.4000 17.0000
v 7.8050 6.6000 17.0000
v 7.8050 6.6000 12.0000
v 25.3000 5.3000 1.0000
v 25.3000 5.3000 3.7000
v 25.1194 6.6717 1.0000
v 25.1194 6.6717 3.7000
v 24.5899 7.9500 1.0000
v 24.5899 7.9500 3.7000
v 23.7477 9.0477 1.0000
v 23.7477 9.0477 3.7000
v 22.6500 9.8899 1.0000
v 22.6500 9.8899 3.7000
v 21.3717 10.4194 1.0000
v 21.3717 10.4194 3.7000
v 20.0000 10.6000 1.0000
v 20.0000 10.6000 3.7000
v 18.6283 10.4194 1.0000
v 18.6283 10.4194 3.7000
v 17.3500 9.8899 1.0000
v 17.3500 9.8899 3.7000
v 16.2523 9.0477 1.0000
v 16.2523 9.0477 3.7000
v 15.4101 7.9500 1.0000
v 15.4101 7.9500 3.7000
v 14.8806 6.6717 1.0000
v 14.8806 6.6717 3.7000
v 14.7000 5.3000 1.0000
v 14.7000 5.3000 3.7000
v 14.8806 3.9283 1.0000
v 14.8806 3.9283 3.7000
v 15.4101 2.6500 1.0000
v 15.4101 2.6500 3.7000
v 16.2523 1.5523 1.0000
v 16.2523 1.5523 3.7000
v 17.3500 0.7101 1.0000
v 17.3500 0.7101 3.7000
v 18.6283 0.1806 1.0000
v 18.6283 0.1806 3.7000
v 20.0000 0.0000 1.0000
v 20.0000 0.0000 3.7000
v 21.3717 0.1806 1.0000
v 21.3717 0.1806 3.7000
v 22.6500 0.7101 1.0000
v 22.6500 0.7101 3.7000
v 23.7477 1.5523 1.0000
v 23.7477 1.5523 3.7000
v 24.5899 2.6500 1.0000
v 24.5899 2.6500 3.7000
v 25.1194 3.9283 1.0000
v 25.1194 3.9283 3.7000
v 25.3000 5.3000 1.0000
v 25.3000 5.3000 3.7000
v 25.3000 5.3000 1.0000
v 25.3000 5.3000 3.7000
v 25.1194 6.6717 1.0000
v 25.1194 6.6717 3.7000
v 24.5899 7.9500 1.0000
v 24.5899 7.9500 3.7000
v 23.7477 9.0477 1.0000
v 23.7477 9.0477 3.7000
v 22.6500 9.8899 1.0000
v 22.6500 9.8899 3.7000
v 21.3717 10.4194 1.0000
v 21.3717 10.4194 3.7000
v 20.0000 10.6000 1.0000
v 20.0000 10.6000 3.7000
v 18.6283 10.4194 1.0000
v 18.6283 10.4194 3.7000
v 17.3500 9.8899 1.0000
v 17.3500 9.8899 3.7000
v 16.2523 9.0477 1.0000
v 16.2523 9.0477 3.7000
v 15.4101 7.9500 1.0000
v 15.4101 7.9500 3.7000
v 14.8806 6.6717 1.0000
v 14.8806 6.6717 3.7000
v 14.7000 5.3000 1.0000
v 14.7000 5.3000 3.7000
v 14.8806 3.9283 1.0000
v 14.8806 3.9283 3.7000
v 15.4101 2.6500 1.0000
v 15.4101 2.6500 3.7000
v 16.2523 1.5523 1.0000
v 16.2523 1.5523 3.7000
v 17.3500 0.7101 1.0000
v 17.3500 0.7101 3.7000
v 18.6283 0.1806 1.0000
v 18.6283 0.1806 3.7000
v 20.0000 0.0000 1.0000
v 20.0000 0.0000 3.7000
v 21.3717 0.1806 1.0000
v 21.3717 0.1806 3.7000
v 22.6500 0.7101 1.0000
v 22.6500 0.7101 3.7000
v 23.7477 1.5523 1.0000
v 23.7477 1.5523 3.7000
v 24.5899 2.6500 1.0000
v 24.5899 2.6500 3.7000
v 25.1194 3.9283 1.0000
v 25.1194 3.9283 3.7000
v 25.3000 5.3000 1.0000
v 25.3000 5.3000 3.7000
v 25.3000 5.3000 -2.0500
v 25.3000 5.3000 0.6500
v 25.1194 6.6717 -2.0500
v 25.1194 6.6717 0.6500
v 24.5899 7.9500 -2.0500
v 24.5899 7.9500 0.6500
v 23.7477 9.0477 -2.0500
v 23.7477 9.0477 0.6500
v 22.6500 9.8899 -2.0500
v 22.6500 9.8899 0.6500
v 21.3717 10.4194 -2.0500
v 21.3717 10.4194 0.6500
v 20.0000 10.6000 -2.0500
v 20.0000 10.6000 0.6500
v 18.6283 10.4194 -2.0500
v 18.6283 10.4194 0.6500
v 17.3500 9.8899 -2.0500
v 17.3500 9.8899 0.6500
v 16.2523 9.0477 -2.0500
v 16.2523 9.0477 0.6500
v 15.4101 7.9500 -2.0500
v 15.4101 7.9500 0.6500
v 14.8806 6.6717 -2.0500
v 14.8806 6.6717 0.6500
v 14.7000 5.3000 -2.0500
v 14.7000 5.3000 0.6500
v 14.8806 3.9283 -2.0500
v 14.8806 3.9283 0.6500
v 15.4101 2.6500 -2.0500
v 15.4101 2.6500 0.6500
v 16.2523 1.5523 -2.0500
v 16.2523 1.5523 0.6500
v 17.3500 0.7101 -2.0500
v 17.3500 0.7101 0.6500
v 18.6283 0.1806 -2.0500
v 18.6283 0.1806 0.6500
v 20.0000 0.0000 -2.0500
v 20.0000 0.0000 0.6500
v 21.3717 0.1806 -2.0500
v 21.3717 0.1806 0.6500
v 22.6500 0.7101 -2.0500
v 22.6500 0.7101 0.6500
v 23.7477 1.5523 -2.0500
v 23.7477 1.5523 0.6500
v 24.5899 2.6500 -2.0500
v 24.5899 2.6500 0.6500
v 25.1194 3.9283 -2.0500
v 25.1194 3.9283 0.6500
v 25.3000 5.3000 -2.0500
v 25.3000 5.3000 0.6500
v 25.3000 5.3000 -2.0500
v 25.3000 5.3000 0.6500
v 25.1194 6.6717 -2.0500
v 25.1194 6.6717 0.6500
v 24.5899 7.9500 -2.0500
v 24.5899 7.9500 0.6500
v 23.7477 9.0477 -2.0500
v 23.7477 9.0477 0.6500
v 22.6500 9.8899 -2.0500
v 22.6500 9.8899 0.6500
v 21.3717 10.4194 -2.0500
v 21.3717 10.4194 0.6500
v 20.0000 10.6000 -2.0500
v 20.0000 10.6000 0.6500
v 18.6283 10.4194 -2.0500
v 18.6283 10.4194 0.6500
v 17.3500 9.8899 -2.0500
v 17.3500 9.8899 0.6500
v 16.2523 9.0477 -2.0500
v 16.2523 9.0477 0.6500
v 15.4101 7.9500 -2.0500
v 15.4101 7.9500 0.6500
v 14.8806 6.6717 -2.0500
v 14.8806 6.6717 0.6500
v 14.7000 5.3000 -2.0500
v 14.7000 5.3000 0.6500
v 14.8806 3.9283 -2.0500
v 14.8806 3.9283 0.6500
v 15.4101 2.6500 -2.0500
v 15.4101 2.6500 0.6500
v 16.2523 1.5523 -2.0500
v 16.2523 1.5523 0.6500
v 17.3500 0.7101 -2.0500
v 17.3500 0.7101 0.6500
v 18.6283 0.1806 -2.0500
v 18.6283 0.1806 0.6500
v 20.0000 0.0000 -2.0500
v 20.0000 0.0000 0.6500
v 21.3717 0.1806 -2.0500
v 21.3717 0.1806 0.6500
v 22.6500 0.7101 -2.0500
v 22.6500 0.7101 0.6500
v 23.7477 1.5523 -2.0500
v 23.7477 1.5523 0.6500
v 24.5899 2.6500 -2.0500
v 24.5899 2.6500 0.6500
v 25.1194 3.9283 -2.0500
v 25.1194 3.9283 0.6500
v 25.3000 5.3000 -2.0500
v 25.3000 5.3000 0.6500
v 25.3000 5.3000 12.3000
v 25.3000 5.3000 15.0000
v 25.1194 6.6717 12.3000
v 25.1194 6.6717 15.0000
v 24.5899 7.9500 12.3000
v 24.5899 7.9500 15.0000
v 23.7477 9.0477 12.3000
v 23.7477 9.0477 15.0000
v 22.6500 9.8899 12.3000
v 22.6500 9.8899 15.0000
v 21.3717 10.4194 12.3000
v 21.3717 10.4194 15.0000
v 20.0000 10.6000 12.3000
v 20.0000 10.6000 15.0000
v 18.6283 10.4194 12.3000
v 18.6283 10.4194 15.0000
v 17.3500 9.8899 12.3000
v 17.3500 9.8899 15.0000
v 16.2523 9.0477 12.3000
v 16.2523 9.0477 15.0000
v 15.4101 7.9500 12.3000
v 15.4101 7.9500 15.0000
v 14.8806 6.6717 12.3000
v 14.8806 6.6717 15.0000
v 14.7000 5.3000 12.3000
v 14.7000 5.3000 15.0000
v 14.8806 3.9283 12.3000
v 14.8806 3.9283 15.0000
v 15.4101 2.6500 12.3000
v 15.4101 2.6500 15.0000
v 16.2523 1.5523 12.3000
v 16.2523 1.5523 15.0000
v 17.3500 0.7101 12.3000
v 17.3500 0.7101 15.0000
v 18.6283 0.1806 12.3000
v 18.6283 0.1806 15.0000
v 20.0000 0.0000 12.3000
v 20.0000 0.0000 15.0000
v 21.3717 0.1806 12.3000
v 21.3717 0.1806 15.0000
v 22.6500 0.7101 12.3000
v 22.6500 0.7101 15.0000
v 23.7477 1.5523 12.3000
v 23.7477 1.5523 15.0000
v 24.5899 2.6500 12.3000
v 24.5899 2.6500 15.0000
v 25.1194 3.9283 12.3000
v 25.1194 3.9283 15.0000
v 25.3000 5.3000 12.3000
v 25.3000 5.3000 15.0000
v 25.3000 5.3000 12.3000
v 25.3000 5.3000 15.0000
v 25.1194 6.6717 12.3000
v 25.1194 6.6717 15.0000
v 24.5899 7.9500 12.3000
v 24.5899 7.9500 15.0000
v 23.7477 9.0477 12.3000
v 23.7477 9.0477 15.0000
v 22.6500 9.8899 12.3000
v 22.6500 9.8899 15.0000
v 21.3717 10.4194 12.3000
v 21.3717 10.4194 15.0000
v 20.0000 10.6000 12.3000
v 20.0000 10.6000 15.0000
v 18.6283 10.4194 12.3000
v 18.6283 10.4194 15.0000
v 17.3500 9.8899 12.3000
v 17.3500 9.8899 15.0000
v 16.2523 9.0477 12.3000
v 16.2523 9.0477 15.0000
v 15.4101 7.9500 12.3000
v 15.4101 7.9500 15.0000
v 14.8806 6.6717 12.3000
v 14.8806 6.6717 15.0000
v 14.7000 5.3000 12.3000
v 14.7000 5.3000 15.0000
v 14.8806 3.9283 12.3000
v 14.8806 3.9283 15.0000
v 15.4101 2.6500 12.3000
v 15.4101 2.6500 15.0000
v 16.2523 1.5523 12.3000
v 16.2523 1.5523 15.0000
v 17.3500 0.7101 12.3000
v 17.3500 0.7101 15.0000
v 18.6283 0.1806 12.3000
v 18.6283 0.1806 15.0000
v 20.0000 0.0000 12.3000
v 20.0000 0.0000 15.0000
v 21.3717 0.1806 12.3000
v 21.3717 0.1806 15.0000
v 22.6500 0.7101 12.3000
v 22.6500 0.7101 15.0000
v 23.7477 1.5523 12.3000
v 23.7477 1.5523 15.0000
v 24.5899 2.6500 12.3000
v 24.5899 2.6500 15.0000
v 25.1194 3.9283 12.3000
v 25.1194 3.9283 15.0000
v 25.3000 5.3000 12.3000
v 25.3000 5.3000 15.0000
v 25.3000 5.3000 15.3500
v 25.3000 5.3000 18.0500
v 25.1194 6.6717 15.3500
v 25.1194 6.6717 18.0500
v 24.5899 7.9500 15.3500
v 24.5899 7.9500 18.0500
v 23.7477 9.0477 15.3500
v 23.7477 9.0477 18.0500
v 22.6500 9.8899 15.3500
v 22.6500 9.8899 18.0500
v 21.3717 10.4194 15.3500
v 21.3717 10.4194 18.0500
v 20.0000 10.6000 15.3500
v 20.0000 10.6000 18.0500
v 18.6283 10.4194 15.3500
v 18.6283 10.4194 18.0500
v 17.3500 9.8899 15.3500
v 17.3500 9.8899 18.0500
v 16.2523 9.0477 15.3500
v 16.2523 9.0477 18.0500
v 15.4101 7.9500 15.3500
v 15.4101 7.9500 18.0500
v 14.8806 6.6717 15.3500
v 14.8806 6.6717 18.0500
v 14.7000 5.3000 15.3500
v 14.7000 5.3000 18.0500
v 14.8806 3.9283 15.3500
v 14.8806 3.9283 18.0500
v 15.4101 2.6500 15.3500
v 15.4101 2.6500 18.0500
v 16.2523 1.5523 15.3500
v 16.2523 1.5523 18.0500
v 17.3500 0.7101 15.3500
v 17.3500 0.7101 18.0500
v 18.6283 0.1806 15.3500
v 18.6283 0.1806 18.0500
v 20.0000 0.0000 15.3500
v 20.0000 0.0000 18.0500
v 21.3717 0.1806 15.3500
v 21.3717 0.1806 18.0500
v 22.6500 0.7101 15.3500
v 22.6500 0.7101 18.0500
v 23.7477 1.5523 15.3500
v 23.7477 1.5523 18.0500
v 24.5899 2.6500 15.3500
v 24.5899 2.6500 18.0500
v 25.1194 3.9283 15.3500
v 25.1194 3.9283 18.0500
v 25.3000 5.3000 15.3500
v 25.3000 5.3000 18.0500
v 25.3000 5.3000 15.3500
v 25.3000 5.3000 18.0500
v 25.1194 6.6717 15.3500
v 25.1194 6.6717 18.0500
v 24.5899 7.9500 15.3500
v 24.5899 7.9500 18.0500
v 23.7477 9.0477 15.3500
v 23.7477 9.0477 18.0500
v 22.6500 9.8899 15.3500
v 22.6500 9.8899 18.0500
v 21.3717 10.4194 15.3500
v 21.3717 10.4194 18.0500
v 20.0000 10.6000 15.3500
v 20.0000 10.6000 18.0500
v 18.6283 10.4194 15.3500
v 18.6283 10.4194 18.0500
v 17.3500 9.8899 15.3500
v 17.3500 9.8899 18.0500
v 16.2523 9.0477 15.3500
v 16.2523 9.0477 18.0500
v 15.4101 7.9500 15.3500
v 15.4101 7.9500 18.0500
v 14.8806 6.6717 15.3500
v 14.8806 6.6717 18.0500
v 14.7000 5.3000 15.3500
v 14.7000 5.3000 18.0500
v 14.8806 3.9283 15.3500
v 14.8806 3.9283 18.0500
v 15.4101 2.6500 15.3500
v 15.4101 2.6500 18.0500
v 16.2523 1.5523 15.3500
v 16.2523 1.5523 18.0500
v 17.3500 0.7101 15.3500
v 17.3500 0.7101 18.0500
v 18.6283 0.1806 15.3500
v 18.6283 0.1806 18.0500
v 20.0000 0.0000 15.3500
v 20.0000 0.0000 18.0500
v 21.3717 0.1806 15.3500
v 21.3717 0.1806 18.0500
v 22.6500 0.7101 15.3500
v 22.6500 0.7101 18.0500
v 23.7477 1.5523 15.3500
v 23.7477 1.5523 18.0500
v 24.5899 2.6500 15.3500
v 24.5899 2.6500 18.0500
v 25.1194 3.9283 15.3500
v 25.1194 3.9283 18.0500
v 25.3000 5.3000 15.3500
v 25.3000 5.3000 18.0500
v 15.4950 9.4000 -2.3500
v 24.5050 9.4000 -2.3500
v 24.5050 10.6000 -2.3500
v 15.4950 10.6000 -2.3500
v 24.5050 9.4000 4.0000
v 15.4950 9.4000 4.0000
v 15.4950 10.6000 4.0000
v 24.5050 10.6000 4.0000
v 15.4950 9.4000 4.0000
v 24.5050 9.4000 4.0000
v 24.5050 9.4000 -2.3500
v 15.4950 9.4000 -2.3500
v 15.4950 10.6000 -2.3500
v 24.5050 10.6000 -2.3500
v 24.5050 10.6000 4.0000
v 15.4950 10.6000 4.0000
v 15.4950 9.4000 4.0000
v 15.4950 9.4000 -2.3500
v 15.4950 10.6000 -2.3500
v 15.4950 10.6000 4.0000
v 24.5050 9.4000 -2.3500
v 24.5050 9.4000 4.0000
v 24.5050 10.6000 4.0000
v 24.5050 10.6000 -2.3500
v 15.4950 9.4000 12.0000
v 24.5050 9.4000 12.0000
v 24.5050 10.6000 12.0000
v 15.4950 10.6000 12.0000
v 24.5050 9.4000 18.3500
v 15.4950 9.4000 18.3500
v 15.4950 10.6000 18.3500
v 24.5050 10.6000 18.3500
v 15.4950 9.4000 18.3500
v 24.5050 9.4000 18.3500
v 24.5050 9.4000 12.0000
v 15.4950 9.4000 12.0000
v 15.4950 10.6000 12.0000
v 24.5050 10.6000 12.0000
v 24.5050 10.6000 18.3500
v 15.4950 10.6000 18.3500
v 15.4950 9.4000 18.3500
v 15.4950 9.4000 12.0000
v 15.4950 10.6000 12.0000
v 15.4950 10.6000 18.3500
v 24.5050 9.4000 12.0000
v 24.5050 9.4000 18.3500
v 24.5050 10.6000 18.3500
v 24.5050 10.6000 12.0000
vt 0.0000 0.0000
vt 1.0000 0.0000
vt 1.0000 1.0000
vt 0.0000 1.0000
vt 0.0000 0.0000
vt 1.0000 0.0000
vt 1.0000 1.0000
vt 0.0000 1.0000
vt 0.0000 0.0000
vt 1.0000 0.0000
vt 1.0000 1.0000
vt 0.0000 1.0000
vt 0.0000 0.0000
vt 1.0000 0.0000
vt 1.0000 1.0000
vt 0.0000 1.0000
vt 0.0000 0.0000
vt 1.0000 0.0000
vt 1.0000 1.0000
vt 0.0000 1.0000
vt 0.0000 0.0000
vt 1.0000 0.0000
vt 1.0000 1.0000
vt 0.0000 1.0000
vt 0.0000 0.0000
vt 1.0000 0.0000
vt 1.0000 1.0000
vt 0.0000 1.0000
vt 0.0000 0.0000
vt 1.0000 0.0000
vt 1.0000 1.0000
vt 0.0000 1.0000
vt 0.0000 0.0000
vt 1.0000 0.0000
vt 1.0000 1.0000
vt 0.0000 1.0000
vt 0.0000 0.0000
vt 1.0000 0.0000
vt 1.0000 1.0000
vt 0.0000 1.0000
vt 0.0000 0.0000
vt 1.0000 0.0000
vt 1.0000 1.0000
vt 0.0000 1.0000
vt 0.0000 0.0000
vt 1.0000 0.0000
vt 1.0000 1.0000
vt 0.0000 1.0000
vt 0.0000 0.0000
vt 1.0000 0.0000
vt 1.0000 1.0000
vt 0.0000 1.0000
vt 0.0000 0.0000
vt 1.0000 0.0000
vt 1.0000 1.0000
vt 0.0000 1.0000
vt 0.0000 0.0000
vt 1.0000 0.0000
vt 1.0000 1.0000
vt 0.0000 1.0000
vt 0.0000 0.0000
vt 1.0000 0.0000
vt 1.0000 1.0000
vt 0.0000 1.0000
vt 0.0000 0.0000
vt 1.0000 0.0000
vt 1.0000 1.0000
vt 0.0000 1.0000
vt 0.0000 0.0000
vt 1.0000 0.0000
vt 1.0000 1.0000
vt 0.0000 1.0000
vt 0.0000 0.0000
vt 1.0000 0.0000
vt 1.0000 1.0000
vt 0.0000 1.0000
vt 0.0000 0.0000
vt 1.0000 0.0000
vt 1.0000 1.0000
vt 0.0000 1.0000
vt 0.0000 0.0000
vt 1.0000 0.0000
vt 1.0000 1.0000
vt 0.0000 1.0000
vt 0.0000 0.0000
vt 1.0000 0.0000
vt 1.0000 1.0000
vt 0.0000 1.0000
vt 0.0000 0.0000
vt 1.0000 0.0000
vt 1.0000 1.0000
vt 0.0000 1.0000
vt 0.0000 0.0000
vt 1.0000 0.0000
vt 1.0000 1.0000
vt 0.0000 1.0000
vt 0.0000 0.0000
vt 1.0000 0.0000
vt 1.0000 1.0000
vt 0.0000 1.0000
vt 0.0000 0.0000
vt 1.0000 0.0000
vt 1.0000 1.0000
vt 0.0000 1.0000
vt 0.0000 0.0000
vt 1.0000 0.0000
vt 1.0000 1.0000
vt 0.0000 1.0000
vt 0.0000 0.0000
vt 1.0000 0.0000
vt 1.0000 1.0000
vt 0.0000 1.0000
vt 0.0000 0.0000
vt 1.0000 0.0000
vt 1.0000 1.0000
vt 0.0000 1.0000
vt 0.0000 0.0000
vt 1.0000 0.0000
vt 1.0000 1.0000
vt 0.0000 1.0000
vt 0.0000 0.0000
vt 1.0000 0.0000
vt 1.0000 1.0000
vt 0.0000 1.0000
vt 0.0000 0.0000
vt 1.0000 0.0000
vt 1.0000 1.0000
vt 0.0000 1.0000
vt 0.0000 0.0000
vt 1.0000 0.0000
vt 1.0000 1.0000
vt 0.0000 1.0000
vt 0.0000 0.0000
vt 1.0000 0.0000
vt 1.0000 1.0000
vt 0.0000 1.0000
vt 0.0000 0.0000
vt 1.0000 0.0000
vt 1.0000 1.0000
vt 0.0000 1.0000
vt 0.0000 0.0000
vt 1.0000 0.0000
vt 1.0000 1.0000
vt 0.0000 1.0000
vt 1.0000 0.5000
vt 1.0000 0.5000
vt 0.9330 0.7500
vt 0.9330 0.7500
vt 0.7500 0.9330
vt 0.7500 0.9330
vt 0.5000 1.0000
vt 0.5000 1.0000
vt 0.2500 0.9330
vt 0.2500 0.9330
vt 0.0670 0.7500
vt 0.0670 0.7500
vt 0.0000 0.5000
vt 0.0000 0.5000
vt 0.0670 0.2500
vt 0.0670 0.2500
vt 0.2500 0.0670
vt 0.2500 0.0670
vt 0.5000 0.0000
vt 0.5000 0.0000
vt 0.7500 0.0670
vt 0.7500 0.0670
vt 0.9330 0.2500
vt 0.9330 0.2500
vt 0.5000 0.5000
vt 0.5000 0.5000
vt 0.0000 0.0000
vt 0.0000 1.0000
vt 0.0833 0.0000
vt 0.0833 1.0000
vt 0.1667 0.0000
vt 0.1667 1.0000
vt 0.2500 0.0000
vt 0.2500 1.0000
vt 0.3333 0.0000
vt 0.3333 1.0000
vt 0.4167 0.0000
vt 0.4167 1.0000
vt 0.5000 0.0000
vt 0.5000 1.0000
vt 0.5833 0.0000
vt 0.5833 1.0000
vt 0.6667 0.0000
vt 0.6667 1.0000
vt 0.7500 0.0000
vt 0.7500 1.0000
vt 0.8333 0.0000
vt 0.8333 1.0000
vt 0.9167 0.0000
vt 0.9167 1.0000
vt 1.0000 0.0000
vt 1.0000 1.0000
vt 0.0000 0.0000
vt 1.0000 0.0000
vt 1.0000 1.0000
vt 0.0000 1.0000
vt 0.0000 0.0000
vt 1.0000 0.0000
vt 1.0000 1.0000
vt 0.0000 1.0000
vt 0.0000 0.0000
vt 1.0000 0.0000
vt 1.0000 1.0000
vt 0.0000 1.0000
vt 0.0000 0.0000
vt 1.0000 0.0000
vt 1.0000 1.0000
vt 0.0000 1.0000
vt 0.0000 0.0000
vt 1.0000 0.0000
vt 1.0000 1.0000
vt 0.0000 1.0000
vt 0.0000 0.0000
vt 1.0000 0.0000
vt 1.0000 1.0000
vt 0.0000 1.0000
vt 0.0000 0.0000
vt 1.0000 0.0000
vt 1.0000 1.0000
vt 0.0000 1.0000
vt 0.0000 0.0000
vt 1.0000 0.0000
vt 1.0000 1.0000
vt 0.0000 1.0000
vt 0.0000 0.0000
vt 1.0000 0.0000
vt 1.0000 1.0000
vt 0.0000 1.0000
vt 0.0000 0.0000
vt 1.0000 0.0000
vt 1.0000 1.0000
vt 0.0000 1.0000
vt 0.0000 0.0000
vt 1.0000 0.0000
vt 1.0000 1.0000
vt 0.0000 1.0000
vt 0.0000 0.0000
vt 1.0000 0.0000
vt 1.0000 1.0000
vt 0.0000 1.0000
vt 0.0000 0.0000
vt 1.0000 0.0000
vt 1.0000 1.0000
vt 0.0000 1.0000
vt 0.0000 0.0000
vt 1.0000 0.0000
vt 1.0000 1.0000
vt 0.0000 1.0000
vt 0.0000 0.0000
vt 1.0000 0.0000
vt 1.0000 1.0000
vt 0.0000 1.0000
vt 0.0000 0.0000
vt 1.0000 0.0000
vt 1.0000 1.0000
vt 0.0000 1.0000
vt 0.0000 0.0000
vt 1.0000 0.0000
vt 1.0000 1.0000
vt 0.0000 1.0000
vt 0.0000 0.0000
vt 1.0000 0.0000
vt 1.0000 1.0000
vt 0.0000 1.0000
vt 0.0000 0.0000
vt 1.0000 0.0000
vt 1.0000 1.0000
vt 0.0000 1.0000
vt 0.0000 0.0000
vt 1.0000 0.0000
vt 1.0000 1.0000
vt 0.0000 1.0000
vt 0.0000 0.0000
vt 1.0000 0.0000
vt 1.0000 1.0000
vt 0.0000 1.0000
vt 0.0000 0.0000
vt 1.0000 0.0000
vt 1.0000 1.0000
vt 0.0000 1.0000
vt 0.0000 0.0000
vt 1.0000 0.0000
vt 1.0000 1.0000
vt 0.0000 1.0000
vt 0.0000 0.0000
vt 1.0000 0.0000
vt 1.0000 1.0000
vt 0.0000 1.0000
vt 0.0000 0.0000
vt 1.0000 0.0000
vt 1.0000 1.0000
vt 0.0000 1.0000
vt 0.0000 0.0000
vt 1.0000 0.0000
vt 1.0000 1.0000
vt 0.0000 1.0000
vt 0.0000 0.0000
vt 1.0000 0.0000
vt 1.0000 1.0000
vt 0.0000 1.0000
vt 0.0000 0.0000
vt 1.0000 0.0000
vt 1.0000 1.0000
vt 0.0000 1.0000
vt 0.0000 0.0000
vt 1.0000 0.0000
vt 1.0000 1.0000
vt 0.0000 1.0000
vt 0.0000 0.0000
vt 1.0000 0.0000
vt 1.0000 1.0000
vt 0.0000 1.0000
vt 0.0000 0.0000
vt 1.0000 0.0000
vt 1.0000 1.0000
vt 0.0000 1.0000
vt 0.0000 0.0000
vt 1.0000 0.0000
vt 1.0000 1.0000
vt 0.0000 1.0000
vt 0.0000 0.0000
vt 1.0000 0.0000
vt 1.0000 1.0000
vt 0.0000 1.0000
vt 0.0000 0.0000
vt 1.0000 0.0000
vt 1.0000 1.0000
vt 0.0000 1.0000
vt 0.0000 0.0000
vt 1.0000 0.0000
vt 1.0000 1.0000
vt 0.0000 1.0000
vt 0.0000 0.0000
vt 1.0000 0.0000
vt 1.0000 1.0000
vt 0.0000 1.0000
vt 1.0000 0.5000
vt 1.0000 0.5000
vt 0.9830 0.6294
vt 0.9830 0.6294
vt 0.9330 0.7500
vt 0.9330 0.7500
vt 0.8536 0.8536
vt 0.8536 0.8536
vt 0.7500 0.9330
vt 0.7500 0.9330
vt 0.6294 0.9830
vt 0.6294 0.9830
vt 0.5000 1.0000
vt 0.5000 1.0000
vt 0.3706 0.9830
vt 0.3706 0.9830
vt 0.2500 0.9330
vt 0.2500 0.9330
vt 0.1464 0.8536
vt 0.1464 0.8536
vt 0.0670 0.7500
vt 0.0670 0.7500
vt 0.0170 0.6294
vt 0.0170 0.6294
vt 0.0000 0.5000
vt 0.0000 0.5000
vt 0.0170 0.3706
vt 0.0170 0.3706
vt 0.0670 0.2500
vt 0.0670 0.2500
vt 0.1464 0.1464
vt 0.1464 0.1464
vt 0.2500 0.0670
vt 0.2500 0.0670
vt 0.3706 0.0170
vt 0.3706 0.0170
vt 0.5000 0.0000
vt 0.5000 0.0000
vt 0.6294 0.0170
vt 0.6294 0.0170
vt 0.7500 0.0670
vt 0.7500 0.0670
vt 0.8536 0.1464
vt 0.8536 0.1464
vt 0.9330 0.2500
vt 0.9330 0.2500
vt 0.9830 0.3706
vt 0.9830 0.3706
vt 0.5000 0.5000
vt 0.5000 0.5000
vt 0.0000 0.0000
vt 0.0000 1.0000
vt 0.2500 0.0000
vt 0.2500 1.0000
vt 0.5000 0.0000
vt 0.5000 1.0000
vt 0.7500 0.0000
vt 0.7500 1.0000
vt 1.0000 0.0000
vt 1.0000 1.0000
vt 1.2500 0.0000
vt 1.2500 1.0000
vt 1.5000 0.0000
vt 1.5000 1.0000
vt 1.7500 0.0000
vt 1.7500 1.0000
vt 2.0000 0.0000
vt 2.0000 1.0000
vt 2.2500 0.0000
vt 2.2500 1.0000
vt 2.5000 0.0000
vt 2.5000 1.0000
vt 2.7500 0.0000
vt 2.7500 1.0000
vt 3.0000 0.0000
vt 3.0000 1.0000
vt 3.2500 0.0000
vt 3.2500 1.0000
vt 3.5000 0.0000
vt 3.5000 1.0000
vt 3.7500 0.0000
vt 3.7500 1.0000
vt 4.0000 0.0000
vt 4.0000 1.0000
vt 4.2500 0.0000
vt 4.2500 1.0000
vt 4.5000 0.0000
vt 4.5000 1.0000
vt 4.7500 0.0000
vt 4.7500 1.0000
vt 5.0000 0.0000
vt 5.0000 1.0000
vt 5.2500 0.0000
vt 5.2500 1.0000
vt 5.5000 0.0000
vt 5.5000 1.0000
vt 5.7500 0.0000
vt 5.7500 1.0000
vt 6.0000 0.0000
vt 6.0000 1.0000
vt 1.0000 0.5000
vt 1.0000 0.5000
vt 0.9830 0.6294
vt 0.9830 0.6294
vt 0.9330 0.7500
vt 0.9330 0.7500
vt 0.8536 0.8536
vt 0.8536 0.8536
vt 0.7500 0.9330
vt 0.7500 0.9330
vt 0.6294 0.9830
vt 0.6294 0.9830
vt 0.5000 1.0000
vt 0.5000 1.0000
vt 0.3706 0.9830
vt 0.3706 0.9830
vt 0.2500 0.9330
vt 0.2500 0.9330
vt 0.1464 0.8536
vt 0.1464 0.8536
vt 0.0670 0.7500
vt 0.0670 0.7500
vt 0.0170 0.6294
vt 0.0170 0.6294
vt 0.0000 0.5000
vt 0.0000 0.5000
vt 0.0170 0.3706
vt 0.0170 0.3706
vt 0.0670 0.2500
vt 0.0670 0.2500
vt 0.1464 0.1464
vt 0.1464 0.1464
vt 0.2500 0.0670
vt 0.2500 0.0670
vt 0.3706 0.0170
vt 0.3706 0.0170
vt 0.5000 0.0000
vt 0.5000 0.0000
vt 0.6294 0.0170
vt 0.6294 0.0170
vt 0.7500 0.0670
vt 0.7500 0.0670
vt 0.8536 0.1464
vt 0.8536 0.1464
vt 0.9330 0.2500
vt 0.9330 0.2500
vt 0.9830 0.3706
vt 0.9830 0.3706
vt 0.5000 0.5000
vt 0.5000 0.5000
vt 0.0000 0.0000
vt 0.0000 1.0000
vt 0.2500 0.0000
vt 0.2500 1.0000
vt 0.5000 0.0000
vt 0.5000 1.0000
vt 0.7500 0.0000
vt 0.7500 1.0000
vt 1.0000 0.0000
vt 1.0000 1.0000
vt 1.2500 0.0000
vt 1.2500 1.0000
vt 1.5000 0.0000
vt 1.5000 1.0000
vt 1.7500 0.0000
vt 1.7500 1.0000
vt 2.0000 0.0000
vt 2.0000 1.0000
vt 2.2500 0.0000
vt 2.2500 1.0000
vt 2.5000 0.0000
vt 2.5000 1.0000
vt 2.7500 0.0000
vt 2.7500 1.0000
vt 3.0000 0.0000
vt 3.0000 1.0000
vt 3.2500 0.0000
vt 3.2500 1.0000
vt 3.5000 0.0000
vt 3.5000 1.0000
vt 3.7500 0.0000
vt 3.7500 1.0000
vt 4.0000 0.0000
vt 4.0000 1.0000
vt 4.2500 0.0000
vt 4.2500 1.0000
vt 4.5000 0.0000
vt 4.5000 1.0000
vt 4.7500 0.0000
vt 4.7500 1.0000
vt 5.0000 0.0000
vt 5.0000 1.0000
vt 5.2500 0.0000
vt 5.2500 1.0000
vt 5.5000 0.0000
vt 5.5000 1.0000
vt 5.7500 0.0000
vt 5.7500 1.0000
vt 6.0000 0.0000
vt 6.0000 1.0000
vt 0.0000 0.0000
vt 1.0000 0.0000
vt 1.0000 1.0000
vt 0.0000 1.0000
vt 0.0000 0.0000
vt 1.0000 0.0000
vt 1.0000 1.0000
vt 0.0000 1.0000
vt 0.0000 0.0000
vt 1.0000 0.0000
vt 1.0000 1.0000
vt 0.0000 1.0000
vt 0.0000 0.0000
vt 1.0000 0.0000
vt 1.0000 1.0000
vt 0.0000 1.0000
vt 0.0000 0.0000
vt 1.0000 0.0000
vt 1.0000 1.0000
vt 0.0000 1.0000
vt 0.0000 0.0000
vt 1.0000 0.0000
vt 1.0000 1.0000
vt 0.0000 1.0000
vt 0.0000 0.0000
vt 1.0000 0.0000
vt 1.0000 1.0000
vt 0.0000 1.0000
vt 0.0000 0.0000
vt 1.0000 0.0000
vt 1.0000 1.0000
vt 0.0000 1.0000
vt 0.0000 0.0000
vt 1.0000 0.0000
vt 1.0000 1.0000
vt 0.0000 1.0000
vt 0.0000 0.0000
vt 1.0000 0.0000
vt 1.0000 1.0000
vt 0.0000 1.0000
vt 0.0000 0.0000
vt 1.0000 0.0000
vt 1.0000 1.0000
vt 0.0000 1.0000
vt 0.0000 0.0000
vt 1.0000 0.0000
vt 1.0000 1.0000
vt 0.0000 1.0000
vt 1.0000 0.5000
vt 1.0000 0.5000
vt 0.9830 0.6294
vt 0.9830 0.6294
vt 0.9330 0.7500
vt 0.9330 0.7500
vt 0.8536 0.8536
vt 0.8536 0.8536
vt 0.7500 0.9330
vt 0.7500 0.9330
vt 0.6294 0.9830
vt 0.6294 0.9830
vt 0.5000 1.0000
vt 0.5000 1.0000
vt 0.3706 0.9830
vt 0.3706 0.9830
vt 0.2500 0.9330
vt 0.2500 0.9330
vt 0.1464 0.8536
vt 0.1464 0.8536
vt 0.0670 0.7500
vt 0.0670 0.7500
vt 0.0170 0.6294
vt 0.0170 0.6294
vt 0.0000 0.5000
vt 0.0000 0.5000
vt 0.0170 0.3706
vt 0.0170 0.3706
vt 0.0670 0.2500
vt 0.0670 0.2500
vt 0.1464 0.1464
vt 0.1464 0.1464
vt 0.2500 0.0670
vt 0.2500 0.0670
vt 0.3706 0.0170
vt 0.3706 0.0170
vt 0.5000 0.0000
vt 0.5000 0.0000
vt 0.6294 0.0170
vt 0.6294 0.0170
vt 0.7500 0.0670
vt 0.7500 0.0670
vt 0.8536 0.1464
vt 0.8536 0.1464
vt 0.9330 0.2500
vt 0.9330 0.2500
vt 0.9830 0.3706
vt 0.9830 0.3706
vt 0.5000 0.5000
vt 0.5000 0.5000
vt 0.0000 0.0000
vt 0.0000 1.0000
vt 0.2500 0.0000
vt 0.2500 1.0000
vt 0.5000 0.0000
vt 0.5000 1.0000
vt 0.7500 0.0000
vt 0.7500 1.0000
vt 1.0000 0.0000
vt 1.0000 1.0000
vt 1.2500 0.0000
vt 1.2500 1.0000
vt 1.5000 0.0000
vt 1.5000 1.0000
vt 1.7500 0.0000
vt 1.7500 1.0000
vt 2.0000 0.0000
vt 2.0000 1.0000
vt 2.2500 0.0000
vt 2.2500 1.0000
vt 2.5000 0.0000
vt 2.5000 1.0000
vt 2.7500 0.0000
vt 2.7500 1.0000
vt 3.0000 0.0000
vt 3.0000 1.0000
vt 3.2500 0.0000
vt 3.2500 1.0000
vt 3.5000 0.0000
vt 3.5000 1.0000
vt 3.7500 0.0000
vt 3.7500 1.0000
vt 4.0000 0.0000
vt 4.0000 1.0000
vt 4.2500 0.0000
vt 4.2500 1.0000
vt 4.5000 0.0000
vt 4.5000 1.0000
vt 4.7500 0.0000
vt 4.7500 1.0000
vt 5.0000 0.0000
vt 5.0000 1.0000
vt 5.2500 0.0000
vt 5.2500 1.0000
vt 5.5000 0.0000
vt 5.5000 1.0000
vt 5.7500 0.0000
vt 5.7500 1.0000
vt 6.0000 0.0000
vt 6.0000 1.0000
vt 1.0000 0.5000
vt 1.0000 0.5000
vt 0.9830 0.6294
vt 0.9830 0.6294
vt 0.9330 0.7500
vt 0.9330 0.7500
vt 0.8536 0.8536
vt 0.8536 0.8536
vt 0.7500 0.9330
vt 0.7500 0.9330
vt 0.6294 0.9830
vt 0.6294 0.9830
vt 0.5000 1.0000
vt 0.5000 1.0000
vt 0.3706 0.9830
vt 0.3706 0.9830
vt 0.2500 0.9330
vt 0.2500 0.9330
vt 0.1464 0.8536
vt 0.1464 0.8536
vt 0.0670 0.7500
vt 0.0670 0.7500
vt 0.0170 0.6294
vt 0.0170 0.6294
vt 0.0000 0.5000
vt 0.0000 0.5000
vt 0.0170 0.3706
vt 0.0170 0.3706
vt 0.0670 0.2500
vt 0.0670 0.2500
vt 0.1464 0.1464
vt 0.1464 0.1464
vt 0.2500 0.0670
vt 0.2500 0.0670
vt 0.3706 0.0170
vt 0.3706 0.0170
vt 0.5000 0.0000
vt 0.5000 0.0000
vt 0.6294 0.0170
vt 0.6294 0.0170
vt 0.7500 0.0670
vt 0.7500 0.0670
vt 0.8536 0.1464
vt 0.8536 0.1464
vt 0.9330 0.2500
vt 0.9330 0.2500
vt 0.9830 0.3706
vt 0.9830 0.3706
vt 0.5000 0.5000
vt 0.5000 0.5000
vt 0.0000 0.0000
vt 0.0000 1.0000
vt 0.2500 0.0000
vt 0.2500 1.0000
vt 0.5000 0.0000
vt 0.5000 1.0000
vt 0.7500 0.0000
vt 0.7500 1.0000
vt 1.0000 0.0000
vt 1.0000 1.0000
vt 1.2500 0.0000
vt 1.2500 1.0000
vt 1.5000 0.0000
vt 1.5000 1.0000
vt 1.7500 0.0000
vt 1.7500 1.0000
vt 2.0000 0.0000
vt 2.0000 1.0000
vt 2.2500 0.0000
vt 2.2500 1.0000
vt 2.5000 0.0000
vt 2.5000 1.0000
vt 2.7500 0.0000
vt 2.7500 1.0000
vt 3.0000 0.0000
vt 3.0000 1.0000
vt 3.2500 0.0000
vt 3.2500 1.0000
vt 3.5000 0.0000
vt 3.5000 1.0000
vt 3.7500 0.0000
vt 3.7500 1.0000
vt 4.0000 0.0000
vt 4.0000 1.0000
vt 4.2500 0.0000
vt 4.2500 1.0000
vt 4.5000 0.0000
vt 4.5000 1.0000
vt 4.7500 0.0000
vt 4.7500 1.0000
vt 5.0000 0.0000
vt 5.0000 1.0000
vt 5.2500 0.0000
vt 5.2500 1.0000
vt 5.5000 0.0000
vt 5.5000 1.0000
vt 5.7500 0.0000
vt 5.7500 1.0000
vt 6.0000 0.0000
vt 6.0000 1.0000
vt 1.0000 0.5000
vt 1.0000 0.5000
vt 0.9830 0.6294
vt 0.9830 0.6294
vt 0.9330 0.7500
vt 0.9330 0.7500
vt 0.8536 0.8536
vt 0.8536 0.8536
vt 0.7500 0.9330
vt 0.7500 0.9330
vt 0.6294 0.9830
vt 0.6294 0.9830
vt 0.5000 1.0000
vt 0.5000 1.0000
vt 0.3706 0.9830
vt 0.3706 0.9830
vt 0.2500 0.9330
vt 0.2500 0.9330
vt 0.1464 0.8536
vt 0.1464 0.8536
vt 0.0670 0.7500
vt 0.0670 0.7500
vt 0.0170 0.6294
vt 0.0170 0.6294
vt 0.0000 0.5000
vt 0.0000 0.5000
vt 0.0170 0.3706
vt 0.0170 0.3706
vt 0.0670 0.2500
vt 0.0670 0.2500
vt 0.1464 0.1464
vt 0.1464 0.1464
vt 0.2500 0.0670
vt 0.2500 0.0670
vt 0.3706 0.0170
vt 0.3706 0.0170
vt 0.5000 0.0000
vt 0.5000 0.0000
vt 0.6294 0.0170
vt 0.6294 0.0170
vt 0.7500 0.0670
vt 0.7500 0.0670
vt 0.8536 0.1464
vt 0.8536 0.1464
vt 0.9330 0.2500
vt 0.9330 0.2500
vt 0.9830 0.3706
vt 0.9830 0.3706
vt 0.5000 0.5000
vt 0.5000 0.5000
vt 0.0000 0.0000
vt 0.0000 1.0000
vt 0.2500 0.0000
vt 0.2500 1.0000
vt 0.5000 0.0000
vt 0.5000 1.0000
vt 0.7500 0.0000
vt 0.7500 1.0000
vt 1.0000 0.0000
vt 1.0000 1.0000
vt 1.2500 0.0000
vt 1.2500 1.0000
vt 1.5000 0.0000
vt 1.5000 1.0000
vt 1.7500 0.0000
vt 1.7500 1.0000
vt 2.0000 0.0000
vt 2.0000 1.0000
vt 2.2500 0.0000
vt 2.2500 1.0000
vt 2.5000 0.0000
vt 2.5000 1.0000
vt 2.7500 0.0000
vt 2.7500 1.0000
vt 3.0000 0.0000
vt 3.0000 1.0000
vt 3.2500 0.0000
vt 3.2500 1.0000
vt 3.5000 0.0000
vt 3.5000 1.0000
vt 3.7500 0.0000
vt 3.7500 1.0000
vt 4.0000 0.0000
vt 4.0000 1.0000
vt 4.2500 0.0000
vt 4.2500 1.0000
vt 4.5000 0.0000
vt 4.5000 1.0000
vt 4.7500 0.0000
vt 4.7500 1.0000
vt 5.0000 0.0000
vt 5.0000 1.0000
vt 5.2500 0.0000
vt 5.2500 1.0000
vt 5.5000 0.0000
vt 5.5000 1.0000
vt 5.7500 0.0000
vt 5.7500 1.0000
vt 6.0000 0.0000
vt 6.0000 1.0000
vt 1.0000 0.5000
vt 1.0000 0.5000
vt 0.9830 0.6294
vt 0.9830 0.6294
vt 0.9330 0.7500
vt 0.9330 0.7500
vt 0.8536 0.8536
vt 0.8536 0.8536
vt 0.7500 0.9330
vt 0.7500 0.9330
vt 0.6294 0.9830
vt 0.6294 0.9830
vt 0.5000 1.0000
vt 0.5000 1.0000
vt 0.3706 0.9830
vt 0.3706 0.9830
vt 0.2500 0.9330
vt 0.2500 0.9330
vt 0.1464 0.8536
vt 0.1464 0.8536
vt 0.0670 0.7500
vt 0.0670 0.7500
vt 0.0170 0.6294
vt 0.0170 0.6294
vt 0.0000 0.5000
vt 0.0000 0.5000
vt 0.0170 0.3706
vt 0.0170 0.3706
vt 0.0670 0.2500
vt 0.0670 0.2500
vt 0.1464 0.1464
vt 0.1464 0.1464
vt 0.2500 0.0670
vt 0.2500 0.0670
vt 0.3706 0.0170
vt 0.3706 0.0170
vt 0.5000 0.0000
vt 0.5000 0.0000
vt 0.6294 0.0170
vt 0.6294 0.0170
vt 0.7500 0.0670
vt 0.7500 0.0670
vt 0.8536 0.1464
vt 0.8536 0.1464
vt 0.9330 0.2500
vt 0.9330 0.2500
vt 0.9830 0.3706
vt 0.9830 0.3706
vt 0.5000 0.5000
vt 0.5000 0.5000
vt 0.0000 0.0000
vt 0.0000 1.0000
vt 0.2500 0.0000
vt 0.2500 1.0000
vt 0.5000 0.0000
vt 0.5000 1.0000
vt 0.7500 0.0000
vt 0.7500 1.0000
vt 1.0000 0.0000
vt 1.0000 1.0000
vt 1.2500 0.0000
vt 1.2500 1.0000
vt 1.5000 0.0000
vt 1.5000 1.0000
vt 1.7500 0.0000
vt 1.7500 1.0000
vt 2.0000 0.0000
vt 2.0000 1.0000
vt 2.2500 0.0000
vt 2.2500 1.0000
vt 2.5000 0.0000
vt 2.5000 1.0000
vt 2.7500 0.0000
vt 2.7500 1.0000
vt 3.0000 0.0000
vt 3.0000 1.0000
vt 3.2500 0.0000
vt 3.2500 1.0000
vt 3.5000 0.0000
vt 3.5000 1.0000
vt 3.7500 0.0000
vt 3.7500 1.0000
vt 4.0000 0.0000
vt 4.0000 1.0000
vt 4.2500 0.0000
vt 4.2500 1.0000
vt 4.5000 0.0000
vt 4.5000 1.0000
vt 4.7500 0.0000
vt 4.7500 1.0000
vt 5.0000 0.0000
vt 5.0000 1.0000
vt 5.2500 0.0000
vt 5.2500 1.0000
vt 5.5000 0.0000
vt 5.5000 1.0000
vt 5.7500 0.0000
vt 5.7500 1.0000
vt 6.0000 0.0000
vt 6.0000 1.0000
vt 0.0000 0.0000
vt 1.0000 0.0000
vt 1.0000 1.0000
vt 0.0000 1.0000
vt 0.0000 0.0000
vt 1.0000 0.0000
vt 1.0000 1.0000
vt 0.0000 1.0000
vt 0.0000 0.0000
vt 1.0000 0.0000
vt 1.0000 1.0000
vt 0.0000 1.0000
vt 0.0000 0.0000
vt 1.0000 0.0000
vt 1.0000 1.0000
vt 0.0000 1.0000
vt 0.0000 0.0000
vt 1.0000 0.0000
vt 1.0000 1.0000
vt 0.0000 1.0000
vt 0.0000 0.0000
vt 1.0000 0.0000
vt 1.0000 1.0000
vt 0.0000 1.0000
vt 0.0000 0.0000
vt 1.0000 0.0000
vt 1.0000 1.0000
vt 0.0000 1.0000
vt 0.0000 0.0000
vt 1.0000 0.0000
vt 1.0000 1.0000
vt 0.0000 1.0000
vt 0.0000 0.0000
vt 1.0000 0.0000
vt 1.0000 1.0000
vt 0.0000 1.0000
vt 0.0000 0.0000
vt 1.0000 0.0000
vt 1.0000 1.0000
vt 0.0000 1.0000
vt 0.0000 0.0000
vt 1.0000 0.0000
vt 1.0000 1.0000
vt 0.0000 1.0000
vt 0.0000 0.0000
vt 1.0000 0.0000
vt 1.0000 1.0000
vt 0.0000 1.0000

o frame
usemtl Tractor_Frame
f 1/1 3/3 2/2
f 1/1 4/4 3/3
f 5/5 7/7 6/6
f 5/5 8/8 7/7
f 9/9 11/11 10/10
f 9/9 12/12 11/11
f 13/13 15/15 14/14
f 13/13 16/16 15/15
f 17/17 19/19 18/18
f 17/17 20/20 19/19
f 21/21 23/23 22/22
f 21/21 24/24 23/23

o hood
usemtl Tractor_Body_Paint
f 25/25 27/27 26/26
f 25/25 28/28 27/27
f 29/29 31/31 30/30
f 29/29 32/32 31/31
f 33/33 35/35 34/34
f 33/33 36/36 35/35
f 37/37 39/39 38/38
f 37/37 40/40 39/39
f 41/41 43/43 42/42
f 41/41 44/44 43/43
f 45/45 47/47 46/46
f 45/45 48/48 47/47

o grille_black
usemtl Tractor_Grille
f 49/49 51/51 50/50
f 49/49 52/52 51/51
f 53/53 55/55 54/54
f 53/53 56/56 55/55
f 57/57 59/59 58/58
f 57/57 60/60 59/59
f 61/61 63/63 62/62
f 61/61 64/64 63/63
f 65/65 67/67 66/66
f 65/65 68/68 67/67
f 69/69 71/71 70/70
f 69/69 72/72 71/71

o headlight_L
usemtl Tractor_Headlight
f 73/73 75/75 74/74
f 73/73 76/76 75/75
f 77/77 79/79 78/78
f 77/77 80/80 79/79
f 81/81 83/83 82/82
f 81/81 84/84 83/83
f 85/85 87/87 86/86
f 85/85 88/88 87/87
f 89/89 91/91 90/90
f 89/89 92/92 91/91
f 93/93 95/95 94/94
f 93/93 96/96 95/95

o headlight_R
usemtl Tractor_Headlight
f 97/97 99/99 98/98
f 97/97 100/100 99/99
f 101/101 103/103 102/102
f 101/101 104/104 103/103
f 105/105 107/107 106/106
f 105/105 108/108 107/107
f 109/109 111/111 110/110
f 109/109 112/112 111/111
f 113/113 115/115 114/114
f 113/113 116/116 115/115
f 117/117 119/119 118/118
f 117/117 120/120 119/119

o grille_lower
usemtl Tractor_Accent_Yellow
f 121/121 123/123 122/122
f 121/121 124/124 123/123
f 125/125 127/127 126/126
f 125/125 128/128 127/127
f 129/129 131/131 130/130
f 129/129 132/132 131/131
f 133/133 135/135 134/134
f 133/133 136/136 135/135
f 137/137 139/139 138/138
f 137/137 140/140 139/139
f 141/141 143/143 142/142
f 141/141 144/144 143/143

o exhaust
usemtl Tractor_Exhaust
f 169/169 147/147 145/145
f 170/170 146/146 148/148
f 169/169 147/147 149/149
f 170/170 150/150 148/148
f 169/169 149/149 151/151
f 170/170 152/152 150/150
f 169/169 151/151 153/153
f 170/170 154/154 152/152
f 169/169 153/153 155/155
f 170/170 156/156 154/154
f 169/169 155/155 157/157
f 170/170 158/158 156/156
f 169/169 157/157 159/159
f 170/170 160/160 158/158
f 169/169 159/159 161/161
f 170/170 162/162 160/160
f 169/169 161/161 163/163
f 170/170 164/164 162/162
f 169/169 163/163 165/165
f 170/170 166/166 164/164
f 169/169 165/165 167/167
f 170/170 168/168 166/166
f 169/169 145/145 167/167
f 170/170 168/168 146/146
f 171/171 174/174 173/173
f 171/171 172/172 174/174
f 173/173 176/176 175/175
f 173/173 174/174 176/176
f 175/175 178/178 177/177
f 175/175 176/176 178/178
f 177/177 180/180 179/179
f 177/177 178/178 180/180
f 179/179 182/182 181/181
f 179/179 180/180 182/182
f 181/181 184/184 183/183
f 181/181 182/182 184/184
f 183/183 186/186 185/185
f 183/183 184/184 186/186
f 185/185 188/188 187/187
f 185/185 186/186 188/188
f 187/187 190/190 189/189
f 187/187 188/188 190/190
f 189/189 192/192 191/191
f 189/189 190/190 192/192
f 191/191 194/194 193/193
f 191/191 192/192 194/194
f 193/193 196/196 195/195
f 193/193 194/194 196/196

o cab
usemtl Tractor_Body_Paint
f 197/197 199/199 198/198
f 197/197 200/200 199/199
f 201/201 203/203 202/202
f 201/201 204/204 203/203
f 205/205 207/207 206/206
f 205/205 208/208 207/207
f 209/209 211/211 210/210
f 209/209 212/212 211/211
f 213/213 215/215 214/214
f 213/213 216/216 215/215
f 217/217 219/219 218/218
f 217/217 220/220 219/219

o roof
usemtl Tractor_Body_Paint
f 221/221 223/223 222/222
f 221/221 224/224 223/223
f 225/225 227/227 226/226
f 225/225 228/228 227/227
f 229/229 231/231 230/230
f 229/229 232/232 231/231
f 233/233 235/235 234/234
f 233/233 236/236 235/235
f 237/237 239/239 238/238
f 237/237 240/240 239/239
f 241/241 243/243 242/242
f 241/241 244/244 243/243

o window_front
usemtl Tractor_Glass
f 245/245 247/247 246/246
f 245/245 248/248 247/247
f 249/249 251/251 250/250
f 249/249 252/252 251/251
f 253/253 255/255 254/254
f 253/253 256/256 255/255
f 257/257 259/259 258/258
f 257/257 260/260 259/259
f 261/261 263/263 262/262
f 261/261 264/264 263/263
f 265/265 267/267 266/266
f 265/265 268/268 267/267

o window_L
usemtl Tractor_Glass
f 269/269 271/271 270/270
f 269/269 272/272 271/271
f 273/273 275/275 274/274
f 273/273 276/276 275/275
f 277/277 279/279 278/278
f 277/277 280/280 279/279
f 281/281 283/283 282/282
f 281/281 284/284 283/283
f 285/285 287/287 286/286
f 285/285 288/288 287/287
f 289/289 291/291 290/290
f 289/289 292/292 291/291

o window_R
usemtl Tractor_Glass
f 293/293 295/295 294/294
f 293/293 296/296 295/295
f 297/297 299/299 298/298
f 297/297 300/300 299/299
f 301/301 303/303 302/302
f 301/301 304/304 303/303
f 305/305 307/307 306/306
f 305/305 308/308 307/307
f 309/309 311/311 310/310
f 309/309 312/312 311/311
f 313/313 315/315 314/314
f 313/313 316/316 315/315

o window_back
usemtl Tractor_Glass
f 317/317 319/319 318/318
f 317/317 320/320 319/319
f 321/321 323/323 322/322
f 321/321 324/324 323/323
f 325/325 327/327 326/326
f 325/325 328/328 327/327
f 329/329 331/331 330/330
f 329/329 332/332 331/331
f 333/333 335/335 334/334
f 333/333 336/336 335/335
f 337/337 339/339 338/338
f 337/337 340/340 339/339

o wheel_front_L
usemtl Tractor_Tire
f 389/389 343/343 341/341
f 390/390 342/342 344/344
f 389/389 345/345 343/343
f 390/390 344/344 346/346
f 389/389 347/347 345/345
f 390/390 346/346 348/348
f 389/389 349/349 347/347
f 390/390 348/348 350/350
f 389/389 351/351 349/349
f 390/390 350/350 352/352
f 389/389 353/353 351/351
f 390/390 352/352 354/354
f 389/389 355/355 353/353
f 390/390 354/354 356/356
f 389/389 357/357 355/355
f 390/390 356/356 358/358
f 389/389 359/359 357/357
f 390/390 358/358 360/360
f 389/389 361/361 359/359
f 390/390 360/360 362/362
f 389/389 363/363 361/361
f 390/390 362/362 364/364
f 389/389 365/365 363/363
f 390/390 364/364 366/366
f 389/389 367/367 365/365
f 390/390 366/366 368/368
f 389/389 369/369 367/367
f 390/390 368/368 370/370
f 389/389 371/371 369/369
f 390/390 370/370 372/372
f 389/389 373/373 371/371
f 390/390 372/372 374/374
f 389/389 375/375 373/373
f 390/390 374/374 376/376
f 389/389 377/377 375/375
f 390/390 376/376 378/378
f 389/389 379/379 377/377
f 390/390 378/378 380/380
f 389/389 381/381 379/379
f 390/390 380/380 382/382
f 389/389 383/383 381/381
f 390/390 382/382 384/384
f 389/389 385/385 383/383
f 390/390 384/384 386/386
f 389/389 387/387 385/385
f 390/390 386/386 388/388
f 389/389 341/341 387/387
f 390/390 388/388 342/342
f 391/391 393/393 394/394
f 391/391 394/394 392/392
f 393/393 395/395 396/396
f 393/393 396/396 394/394
f 395/395 397/397 398/398
f 395/395 398/398 396/396
f 397/397 399/399 400/400
f 397/397 400/400 398/398
f 399/399 401/401 402/402
f 399/399 402/402 400/400
f 401/401 403/403 404/404
f 401/401 404/404 402/402
f 403/403 405/405 406/406
f 403/403 406/406 404/404
f 405/405 407/407 408/408
f 405/405 408/408 406/406
f 407/407 409/409 410/410
f 407/407 410/410 408/408
f 409/409 411/411 412/412
f 409/409 412/412 410/410
f 411/411 413/413 414/414
f 411/411 414/414 412/412
f 413/413 415/415 416/416
f 413/413 416/416 414/414
f 415/415 417/417 418/418
f 415/415 418/418 416/416
f 417/417 419/419 420/420
f 417/417 420/420 418/418
f 419/419 421/421 422/422
f 419/419 422/422 420/420
f 421/421 423/423 424/424
f 421/421 424/424 422/422
f 423/423 425/425 426/426
f 423/423 426/426 424/424
f 425/425 427/427 428/428
f 425/425 428/428 426/426
f 427/427 429/429 430/430
f 427/427 430/430 428/428
f 429/429 431/431 432/432
f 429/429 432/432 430/430
f 431/431 433/433 434/434
f 431/431 434/434 432/432
f 433/433 435/435 436/436
f 433/433 436/436 434/434
f 435/435 437/437 438/438
f 435/435 438/438 436/436
f 437/437 439/439 440/440
f 437/437 440/440 438/438

o wheel_front_R
usemtl Tractor_Tire
f 489/489 443/443 441/441
f 490/490 442/442 444/444
f 489/489 445/445 443/443
f 490/490 444/444 446/446
f 489/489 447/447 445/445
f 490/490 446/446 448/448
f 489/489 449/449 447/447
f 490/490 448/448 450/450
f 489/489 451/451 449/449
f 490/490 450/450 452/452
f 489/489 453/453 451/451
f 490/490 452/452 454/454
f 489/489 455/455 453/453
f 490/490 454/454 456/456
f 489/489 457/457 455/455
f 490/490 456/456 458/458
f 489/489 459/459 457/457
f 490/490 458/458 460/460
f 489/489 461/461 459/459
f 490/490 460/460 462/462
f 489/489 463/463 461/461
f 490/490 462/462 464/464
f 489/489 465/465 463/463
f 490/490 464/464 466/466
f 489/489 467/467 465/465
f 490/490 466/466 468/468
f 489/489 469/469 467/467
f 490/490 468/468 470/470
f 489/489 471/471 469/469
f 490/490 470/470 472/472
f 489/489 473/473 471/471
f 490/490 472/472 474/474
f 489/489 475/475 473/473
f 490/490 474/474 476/476
f 489/489 477/477 475/475
f 490/490 476/476 478/478
f 489/489 479/479 477/477
f 490/490 478/478 480/480
f 489/489 481/481 479/479
f 490/490 480/480 482/482
f 489/489 483/483 481/481
f 490/490 482/482 484/484
f 489/489 485/485 483/483
f 490/490 484/484 486/486
f 489/489 487/487 485/485
f 490/490 486/486 488/488
f 489/489 441/441 487/487
f 490/490 488/488 442/442
f 491/491 493/493 494/494
f 491/491 494/494 492/492
f 493/493 495/495 496/496
f 493/493 496/496 494/494
f 495/495 497/497 498/498
f 495/495 498/498 496/496
f 497/497 499/499 500/500
f 497/497 500/500 498/498
f 499/499 501/501 502/502
f 499/499 502/502 500/500
f 501/501 503/503 504/504
f 501/501 504/504 502/502
f 503/503 505/505 506/506
f 503/503 506/506 504/504
f 505/505 507/507 508/508
f 505/505 508/508 506/506
f 507/507 509/509 510/510
f 507/507 510/510 508/508
f 509/509 511/511 512/512
f 509/509 512/512 510/510
f 511/511 513/513 514/514
f 511/511 514/514 512/512
f 513/513 515/515 516/516
f 513/513 516/516 514/514
f 515/515 517/517 518/518
f 515/515 518/518 516/516
f 517/517 519/519 520/520
f 517/517 520/520 518/518
f 519/519 521/521 522/522
f 519/519 522/522 520/520
f 521/521 523/523 524/524
f 521/521 524/524 522/522
f 523/523 525/525 526/526
f 523/523 526/526 524/524
f 525/525 527/527 528/528
f 525/525 528/528 526/526
f 527/527 529/529 530/530
f 527/527 530/530 528/528
f 529/529 531/531 532/532
f 529/529 532/532 530/530
f 531/531 533/533 534/534
f 531/531 534/534 532/532
f 533/533 535/535 536/536
f 533/533 536/536 534/534
f 535/535 537/537 538/538
f 535/535 538/538 536/536
f 537/537 539/539 540/540
f 537/537 540/540 538/538

o fender_front_L
usemtl Tractor_Body_Paint
f 541/541 543/543 542/542
f 541/541 544/544 543/543
f 545/545 547/547 546/546
f 545/545 548/548 547/547
f 549/549 551/551 550/550
f 549/549 552/552 551/551
f 553/553 555/555 554/554
f 553/553 556/556 555/555
f 557/557 559/559 558/558
f 557/557 560/560 559/559
f 561/561 563/563 562/562
f 561/561 564/564 563/563

o fender_front_R
usemtl Tractor_Body_Paint
f 565/565 567/567 566/566
f 565/565 568/568 567/567
f 569/569 571/571 570/570
f 569/569 572/572 571/571
f 573/573 575/575 574/574
f 573/573 576/576 575/575
f 577/577 579/579 578/578
f 577/577 580/580 579/579
f 581/581 583/583 582/582
f 581/581 584/584 583/583
f 585/585 587/587 586/586
f 585/585 588/588 587/587

o wheel_rear_L_in
usemtl Tractor_Tire
f 637/637 591/591 589/589
f 638/638 590/590 592/592
f 637/637 593/593 591/591
f 638/638 592/592 594/594
f 637/637 595/595 593/593
f 638/638 594/594 596/596
f 637/637 597/597 595/595
f 638/638 596/596 598/598
f 637/637 599/599 597/597
f 638/638 598/598 600/600
f 637/637 601/601 599/599
f 638/638 600/600 602/602
f 637/637 603/603 601/601
f 638/638 602/602 604/604
f 637/637 605/605 603/603
f 638/638 604/604 606/606
f 637/637 607/607 605/605
f 638/638 606/606 608/608
f 637/637 609/609 607/607
f 638/638 608/608 610/610
f 637/637 611/611 609/609
f 638/638 610/610 612/612
f 637/637 613/613 611/611
f 638/638 612/612 614/614
f 637/637 615/615 613/613
f 638/638 614/614 616/616
f 637/637 617/617 615/615
f 638/638 616/616 618/618
f 637/637 619/619 617/617
f 638/638 618/618 620/620
f 637/637 621/621 619/619
f 638/638 620/620 622/622
f 637/637 623/623 621/621
f 638/638 622/622 624/624
f 637/637 625/625 623/623
f 638/638 624/624 626/626
f 637/637 627/627 625/625
f 638/638 626/626 628/628
f 637/637 629/629 627/627
f 638/638 628/628 630/630
f 637/637 631/631 629/629
f 638/638 630/630 632/632
f 637/637 633/633 631/631
f 638/638 632/632 634/634
f 637/637 635/635 633/633
f 638/638 634/634 636/636
f 637/637 589/589 635/635
f 638/638 636/636 590/590
f 639/639 641/641 642/642
f 639/639 642/642 640/640
f 641/641 643/643 644/644
f 641/641 644/644 642/642
f 643/643 645/645 646/646
f 643/643 646/646 644/644
f 645/645 647/647 648/648
f 645/645 648/648 646/646
f 647/647 649/649 650/650
f 647/647 650/650 648/648
f 649/649 651/651 652/652
f 649/649 652/652 650/650
f 651/651 653/653 654/654
f 651/651 654/654 652/652
f 653/653 655/655 656/656
f 653/653 656/656 654/654
f 655/655 657/657 658/658
f 655/655 658/658 656/656
f 657/657 659/659 660/660
f 657/657 660/660 658/658
f 659/659 661/661 662/662
f 659/659 662/662 660/660
f 661/661 663/663 664/664
f 661/661 664/664 662/662
f 663/663 665/665 666/666
f 663/663 666/666 664/664
f 665/665 667/667 668/668
f 665/665 668/668 666/666
f 667/667 669/669 670/670
f 667/667 670/670 668/668
f 669/669 671/671 672/672
f 669/669 672/672 670/670
f 671/671 673/673 674/674
f 671/671 674/674 672/672
f 673/673 675/675 676/676
f 673/673 676/676 674/674
f 675/675 677/677 678/678
f 675/675 678/678 676/676
f 677/677 679/679 680/680
f 677/677 680/680 678/678
f 679/679 681/681 682/682
f 679/679 682/682 680/680
f 681/681 683/683 684/684
f 681/681 684/684 682/682
f 683/683 685/685 686/686
f 683/683 686/686 684/684
f 685/685 687/687 688/688
f 685/685 688/688 686/686

o wheel_rear_L_out
usemtl Tractor_Tire
f 737/737 691/691 689/689
f 738/738 690/690 692/692
f 737/737 693/693 691/691
f 738/738 692/692 694/694
f 737/737 695/695 693/693
f 738/738 694/694 696/696
f 737/737 697/697 695/695
f 738/738 696/696 698/698
f 737/737 699/699 697/697
f 738/738 698/698 700/700
f 737/737 701/701 699/699
f 738/738 700/700 702/702
f 737/737 703/703 701/701
f 738/738 702/702 704/704
f 737/737 705/705 703/703
f 738/738 704/704 706/706
f 737/737 707/707 705/705
f 738/738 706/706 708/708
f 737/737 709/709 707/707
f 738/738 708/708 710/710
f 737/737 711/711 709/709
f 738/738 710/710 712/712
f 737/737 713/713 711/711
f 738/738 712/712 714/714
f 737/737 715/715 713/713
f 738/738 714/714 716/716
f 737/737 717/717 715/715
f 738/738 716/716 718/718
f 737/737 719/719 717/717
f 738/738 718/718 720/720
f 737/737 721/721 719/719
f 738/738 720/720 722/722
f 737/737 723/723 721/721
f 738/738 722/722 724/724
f 737/737 725/725 723/723
f 738/738 724/724 726/726
f 737/737 727/727 725/725
f 738/738 726/726 728/728
f 737/737 729/729 727/727
f 738/738 728/728 730/730
f 737/737 731/731 729/729
f 738/738 730/730 732/732
f 737/737 733/733 731/731
f 738/738 732/732 734/734
f 737/737 735/735 733/733
f 738/738 734/734 736/736
f 737/737 689/689 735/735
f 738/738 736/736 690/690
f 739/739 741/741 742/742
f 739/739 742/742 740/740
f 741/741 743/743 744/744
f 741/741 744/744 742/742
f 743/743 745/745 746/746
f 743/743 746/746 744/744
f 745/745 747/747 748/748
f 745/745 748/748 746/746
f 747/747 749/749 750/750
f 747/747 750/750 748/748
f 749/749 751/751 752/752
f 749/749 752/752 750/750
f 751/751 753/753 754/754
f 751/751 754/754 752/752
f 753/753 755/755 756/756
f 753/753 756/756 754/754
f 755/755 757/757 758/758
f 755/755 758/758 756/756
f 757/757 759/759 760/760
f 757/757 760/760 758/758
f 759/759 761/761 762/762
f 759/759 762/762 760/760
f 761/761 763/763 764/764
f 761/761 764/764 762/762
f 763/763 765/765 766/766
f 763/763 766/766 764/764
f 765/765 767/767 768/768
f 765/765 768/768 766/766
f 767/767 769/769 770/770
f 767/767 770/770 768/768
f 769/769 771/771 772/772
f 769/769 772/772 770/770
f 771/771 773/773 774/774
f 771/771 774/774 772/772
f 773/773 775/775 776/776
f 773/773 776/776 774/774
f 775/775 777/777 778/778
f 775/775 778/778 776/776
f 777/777 779/779 780/780
f 777/777 780/780 778/778
f 779/779 781/781 782/782
f 779/779 782/782 780/780
f 781/781 783/783 784/784
f 781/781 784/784 782/782
f 783/783 785/785 786/786
f 783/783 786/786 784/784
f 785/785 787/787 788/788
f 785/785 788/788 786/786

o wheel_rear_R_in
usemtl Tractor_Tire
f 837/837 791/791 789/789
f 838/838 790/790 792/792
f 837/837 793/793 791/791
f 838/838 792/792 794/794
f 837/837 795/795 793/793
f 838/838 794/794 796/796
f 837/837 797/797 795/795
f 838/838 796/796 798/798
f 837/837 799/799 797/797
f 838/838 798/798 800/800
f 837/837 801/801 799/799
f 838/838 800/800 802/802
f 837/837 803/803 801/801
f 838/838 802/802 804/804
f 837/837 805/805 803/803
f 838/838 804/804 806/806
f 837/837 807/807 805/805
f 838/838 806/806 808/808
f 837/837 809/809 807/807
f 838/838 808/808 810/810
f 837/837 811/811 809/809
f 838/838 810/810 812/812
f 837/837 813/813 811/811
f 838/838 812/812 814/814
f 837/837 815/815 813/813
f 838/838 814/814 816/816
f 837/837 817/817 815/815
f 838/838 816/816 818/818
f 837/837 819/819 817/817
f 838/838 818/818 820/820
f 837/837 821/821 819/819
f 838/838 820/820 822/822
f 837/837 823/823 821/821
f 838/838 822/822 824/824
f 837/837 825/825 823/823
f 838/838 824/824 826/826
f 837/837 827/827 825/825
f 838/838 826/826 828/828
f 837/837 829/829 827/827
f 838/838 828/828 830/830
f 837/837 831/831 829/829
f 838/838 830/830 832/832
f 837/837 833/833 831/831
f 838/838 832/832 834/834
f 837/837 835/835 833/833
f 838/838 834/834 836/836
f 837/837 789/789 835/835
f 838/838 836/836 790/790
f 839/839 841/841 842/842
f 839/839 842/842 840/840
f 841/841 843/843 844/844
f 841/841 844/844 842/842
f 843/843 845/845 846/846
f 843/843 846/846 844/844
f 845/845 847/847 848/848
f 845/845 848/848 846/846
f 847/847 849/849 850/850
f 847/847 850/850 848/848
f 849/849 851/851 852/852
f 849/849 852/852 850/850
f 851/851 853/853 854/854
f 851/851 854/854 852/852
f 853/853 855/855 856/856
f 853/853 856/856 854/854
f 855/855 857/857 858/858
f 855/855 858/858 856/856
f 857/857 859/859 860/860
f 857/857 860/860 858/858
f 859/859 861/861 862/862
f 859/859 862/862 860/860
f 861/861 863/863 864/864
f 861/861 864/864 862/862
f 863/863 865/865 866/866
f 863/863 866/866 864/864
f 865/865 867/867 868/868
f 865/865 868/868 866/866
f 867/867 869/869 870/870
f 867/867 870/870 868/868
f 869/869 871/871 872/872
f 869/869 872/872 870/870
f 871/871 873/873 874/874
f 871/871 874/874 872/872
f 873/873 875/875 876/876
f 873/873 876/876 874/874
f 875/875 877/877 878/878
f 875/875 878/878 876/876
f 877/877 879/879 880/880
f 877/877 880/880 878/878
f 879/879 881/881 882/882
f 879/879 882/882 880/880
f 881/881 883/883 884/884
f 881/881 884/884 882/882
f 883/883 885/885 886/886
f 883/883 886/886 884/884
f 885/885 887/887 888/888
f 885/885 888/888 886/886

o wheel_rear_R_out
usemtl Tractor_Tire
f 937/937 891/891 889/889
f 938/938 890/890 892/892
f 937/937 893/893 891/891
f 938/938 892/892 894/894
f 937/937 895/895 893/893
f 938/938 894/894 896/896
f 937/937 897/897 895/895
f 938/938 896/896 898/898
f 937/937 899/899 897/897
f 938/938 898/898 900/900
f 937/937 901/901 899/899
f 938/938 900/900 902/902
f 937/937 903/903 901/901
f 938/938 902/902 904/904
f 937/937 905/905 903/903
f 938/938 904/904 906/906
f 937/937 907/907 905/905
f 938/938 906/906 908/908
f 937/937 909/909 907/907
f 938/938 908/908 910/910
f 937/937 911/911 909/909
f 938/938 910/910 912/912
f 937/937 913/913 911/911
f 938/938 912/912 914/914
f 937/937 915/915 913/913
f 938/938 914/914 916/916
f 937/937 917/917 915/915
f 938/938 916/916 918/918
f 937/937 919/919 917/917
f 938/938 918/918 920/920
f 937/937 921/921 919/919
f 938/938 920/920 922/922
f 937/937 923/923 921/921
f 938/938 922/922 924/924
f 937/937 925/925 923/923
f 938/938 924/924 926/926
f 937/937 927/927 925/925
f 938/938 926/926 928/928
f 937/937 929/929 927/927
f 938/938 928/928 930/930
f 937/937 931/931 929/929
f 938/938 930/930 932/932
f 937/937 933/933 931/931
f 938/938 932/932 934/934
f 937/937 935/935 933/933
f 938/938 934/934 936/936
f 937/937 889/889 935/935
f 938/938 936/936 890/890
f 939/939 941/941 942/942
f 939/939 942/942 940/940
f 941/941 943/943 944/944
f 941/941 944/944 942/942
f 943/943 945/945 946/946
f 943/943 946/946 944/944
f 945/945 947/947 948/948
f 945/945 948/948 946/946
f 947/947 949/949 950/950
f 947/947 950/950 948/948
f 949/949 951/951 952/952
f 949/949 952/952 950/950
f 951/951 953/953 954/954
f 951/951 954/954 952/952
f 953/953 955/955 956/956
f 953/953 956/956 954/954
f 955/955 957/957 958/958
f 955/955 958/958 956/956
f 957/957 959/959 960/960
f 957/957 960/960 958/958
f 959/959 961/961 962/962
f 959/959 962/962 960/960
f 961/961 963/963 964/964
f 961/961 964/964 962/962
f 963/963 965/965 966/966
f 963/963 966/966 964/964
f 965/965 967/967 968/968
f 965/965 968/968 966/966
f 967/967 969/969 970/970
f 967/967 970/970 968/968
f 969/969 971/971 972/972
f 969/969 972/972 970/970
f 971/971 973/973 974/974
f 971/971 974/974 972/972
f 973/973 975/975 976/976
f 973/973 976/976 974/974
f 975/975 977/977 978/978
f 975/975 978/978 976/976
f 977/977 979/979 980/980
f 977/977 980/980 978/978
f 979/979 981/981 982/982
f 979/979 982/982 980/980
f 981/981 983/983 984/984
f 981/981 984/984 982/982
f 983/983 985/985 986/986
f 983/983 986/986 984/984
f 985/985 987/987 988/988
f 985/985 988/988 986/986

o fender_rear_L
usemtl Tractor_Body_Paint
f 989/989 991/991 990/990
f 989/989 992/992 991/991
f 993/993 995/995 994/994
f 993/993 996/996 995/995
f 997/997 999/999 998/998
f 997/997 1000/1000 999/999
f 1001/1001 1003/1003 1002/1002
f 1001/1001 1004/1004 1003/1003
f 1005/1005 1007/1007 1006/1006
f 1005/1005 1008/1008 1007/1007
f 1009/1009 1011/1011 1010/1010
f 1009/1009 1012/1012 1011/1011

o fender_rear_R
usemtl Tractor_Body_Paint
f 1013/1013 1015/1015 1014/1014
f 1013/1013 1016/1016 1015/1015
f 1017/1017 1019/1019 1018/1018
f 1017/1017 1020/1020 1019/1019
f 1021/1021 1023/1023 1022/1022
f 1021/1021 1024/1024 1023/1023
f 1025/1025 1027/1027 1026/1026
f 1025/1025 1028/1028 1027/1027
f 1029/1029 1031/1031 1030/1030
f 1029/1029 1032/1032 1031/1031
f 1033/1033 1035/1035 1034/1034
f 1033/1033 1036/1036 1035/1035
