# Tractor V1

#front -----------------------------------------------
# Vertices
v 5 0 0
v 7 0 0
v 9 2 0
v 9 4 0
v 7 6 0
v 5 6 0
v 3 4 0
v 3 2 0
v 6 3 0
v 16 0 0
v 19 0 0
v 22 3 0
v 22 6 0
v 19 9 0
v 16 9 0
v 13 6 0
v 13 3 0
v 17.5 4.5 0
v 13 1 0
v 13 5 0
v 9 5 0
v 9 1 0
v 8 5 0
v 8 6 0
v 13 9 0
v 3 6 0
v 3 9 0
v 1 8 0
v 1 5 0
v 3 5 0
v 4 5 0
v 11 14 0
v 17 14 0
v 18 9 0
v 10 9 0

# Caras - llanta chica
f 1 8 9
f 2 1 9
f 3 2 9
f 4 3 9
f 5 4 9
f 6 5 9
f 7 6 9
f 8 7 9

# Caras - llanta grande
f 11 10 18
f 12 11 18
f 13 12 18
f 14 13 18
f 15 14 18
f 16 15 18
f 17 16 18
f 10 17 18

# Caras - v 19-22
f 19 22 21
f 20 19 21

# Caras - v 23-24
f 16 20 24
f 20 23 24

# Cara - v 21
f 24 23 5

# Cara - v 22
f 15 16 25

# Caras - v 26-27
f 25 16 27
f 16 26 27

# Caras - v 28-30
f 27 30 28
f 30 29 28

# Caras - v 31
f 6 31 26
f 31 30 26

# Caras - v 32-35
f 33 34 32
f 34 35 32

#back -----------------------------------------------
# Vertices
v 5 0 8
v 7 0 8
v 9 2 8
v 9 4 8
v 7 6 8
v 5 6 8
v 3 4 8
v 3 2 8
v 6 3 8
v 16 0 8
v 19 0 8
v 22 3 8
v 22 6 8
v 19 9 8
v 16 9 8
v 13 6 8
v 13 3 8
v 17.5 4.5 8
v 13 1 8
v 13 5 8
v 9 5 8
v 9 1 8
v 8 5 8
v 8 6 8
v 13 9 8
v 3 6 8
v 3 9 8
v 1 8 8
v 1 5 8
v 3 5 8
v 4 5 8
v 11 14 8
v 17 14 8
v 18 9 8
v 10 9 8

# Caras - llanta chica
f 36 44 43
f 37 44 36
f 38 44 37
f 39 44 38
f 40 44 39
f 41 44 40
f 42 44 41
f 43 44 42

# Caras - llanta grande
f 46 45 53
f 47 46 53
f 48 47 53
f 49 48 53
f 50 49 53
f 51 50 53
f 52 51 53
f 45 52 53

f 46 53 45
f 47 53 46
f 48 53 47
f 49 53 48
f 50 53 49
f 51 53 50
f 52 53 51
f 45 53 52


# Caras v 19-22
f 54 56 57
f 55 56 54

# Caras v 23-24
f 51 59 55
f 55 59 58

# Cara small
f 59 40 58

# Cara mid v 22 
f 50 60 51

# Caras v 26-27
f 60 62 51
f 51 62 61

# Caras v 28-30
f 62 63 65
f 65 63 64

# Caras v 31
f 41 61 66
f 61 65 66

# Caras v 32-35
f 69 68 67
f 70 69 67


#union -----------------------------------------------

f 7 8 43
f 43 42 7
f 8 1 36
f 36 43 8
f 1 2 37
f 37 36 1
f 2 3 38
f 38 37 2
f 3 22 57
f 57 38 3
f 22 19 54
f 54 57 22
f 19 17 52
f 52 54 19
f 17 10 45
f 45 52 17
f 10 11 46
f 46 45 10
f 11 12 47
f 47 46 11
f 12 13 48
f 48 47 12
f 13 14 49
f 49 48 13

f 14 25 60
f 60 49 14

f 25 68 33
f 68 25 60
f 33 32 67
f 67 68 33

f 33 69 34
f 69 33 68

f 32 35 70
f 70 67 32
f 35 27 62
f 62 70 35
f 27 28 63
f 63 62 27
f 28 29 64
f 64 63 28
f 29 30 65
f 65 64 29
f 30 31 66
f 66 65 30
f 31 7 42
f 42 66 31



f 21 4 39
f 39 56 21
f 4 23 58
f 58 39 4
f 23 21 56
f 56 58 23



