v 0 5.5 0
v 0.5 6 0
v 5.5 6 0
v 6 5.5 0
v 6 0.5 0
v 5.5 0 0
v 0.5 0 0
v 0 0.5 0
v 3 3 0

f 1 9 2
f 2 9 3
f 3 9 4
f 4 9 5
f 5 9 6
f 7 9 6
f 7 9 8
f 1 9 8

v 0 5.5 7
v 0.5 6 7
v 5.5 6 7
v 6 5.5 7
v 6 0.5 7
v 5.5 0 7
v 0.5 0 7
v 0 0.5 7
v 3 3 7

f 10 11 18
f 11 12 18
f 12 13 18
f 13 14 18
f 14 15 18
f 15 16 18
f 16 17 18
f 17 10 18

f 1 10 11
f 1 11 2

f 2 11 12
f 2 12 3

f 3 12 13
f 3 13 4

f 4 13 14
f 4 14 5

f 5 14 15
f 5 15 6

f 6 15 16
f 6 16 7

f 7 16 17
f 7 17 8

f 8 17 10
f 8 10 1


Sí. Si quieres que sea más grande pero con números que se vean naturales, podemos pasar de 4 × 4 × 5 a aproximadamente 6 × 6 × 7. Mantengo la misma estructura y el centro.

v 0 5.5 0
v 0.5 6 0
v 5.5 6 0
v 6 5.5 0
v 6 0.5 0
v 5.5 0 0
v 0.5 0 0
v 0 0.5 0
v 3 3 0

f 1 2 9
f 2 3 9
f 3 4 9
f 4 5 9
f 5 6 9
f 7 6 9
f 7 8 9
f 1 8 9

v 0 5.5 7
v 0.5 6 7
v 5.5 6 7
v 6 5.5 7
v 6 0.5 7
v 5.5 0 7
v 0.5 0 7
v 0 0.5 7
v 3 3 7

f 10 11 18
f 11 12 18
f 12 13 18
f 13 14 18
f 14 15 18
f 15 16 18
f 16 17 18
f 17 10 18

f 1 10 11
f 1 11 2

f 2 11 12
f 2 12 3

f 3 12 13
f 3 13 4

f 4 13 14
f 4 14 5

f 5 14 15
f 5 15 6

f 6 15 16
f 6 16 7

f 7 16 17
f 7 17 8

f 8 17 10
f 8 10 1

Aquí quedó aproximadamente 1.5 veces más grande en X/Y y un poco más profundo en Z, sin usar valores demasiado específicos. Además, conservé exactamente la misma cantidad y orden de vértices/caras, para que no se te desacomode el resto del modelo.

Ad
no esta completamente rendderizada v 0 5.5 0
v 0.5 6 0
v 5.5 6 0
v 6 5.5 0
v 6 0.5 0
v 5.5 0 0
v 0.5 0 0
v 0 0.5 0
v 3 3 0

f 1 2 9
f 2 3 9
f 3 4 9
f 4 5 9
f 5 6 9
f 7 6 9
f 7 8 9
f 1 8 9

v 0 5.5 7
v 0.5 6 7
v 5.5 6 7
v 6 5.5 7
v 6 0.5 7
v 5.5 0 7
v 0.5 0 7
v 0 0.5 7
v 3 3 7

f 10 11 18
f 11 12 18
f 12 13 18
f 13 14 18
f 14 15 18
f 15 16 18
f 16 17 18
f 17 10 18

f 1 10 11
f 1 11 2

f 2 11 12
f 2 12 3

f 3 12 13
f 3 13 4

f 4 13 14
f 4 14 5

f 5 14 15
f 5 15 6

f 6 15 16
f 6 16 7

f 7 16 17
f 7 17 8

f 8 17 10
f 8 10 1

Sí, ya vi el problema. Los vértices están bien, el problema son las direcciones de las caras (f).

En un .obj, el orden de los vértices determina hacia qué lado apunta la normal de la cara. Algunas de tus caras están apuntando hacia adentro, por eso Unity las oculta por el backface culling.

Te lo dejo corregido manteniendo exactamente tus dimensiones y tus vértices, solo cambiando el orden de algunas caras:

v 0 5.5 0
v 0.5 6 0
v 5.5 6 0
v 6 5.5 0
v 6 0.5 0
v 5.5 0 0
v 0.5 0 0
v 0 0.5 0
v 3 3 0

f 1 9 2
f 2 9 3
f 3 9 4
f 4 9 5
f 5 9 6
f 7 9 6
f 7 9 8
f 1 9 8

v 0 5.5 7
v 0.5 6 7
v 5.5 6 7
v 6 5.5 7
v 6 0.5 7
v 5.5 0 7
v 0.5 0 7
v 0 0.5 7
v 3 3 7

f 10 18 11
f 11 18 12
f 12 18 13
f 13 18 14
f 14 18 15
f 15 18 16
f 16 18 17
f 17 18 10

f 1 11 10
f 1 2 11

f 2 12 11
f 2 3 12

f 3 13 12
f 3 4 13

f 4 14 13
f 4 5 14

f 5 15 14
f 5 6 15

f 6 16 15
f 6 7 16

f 7 17 16
f 7 8 17

f 8 10 17
f 8 1 10
¿Qué cambié?

Principalmente hice que las caras tuvieran un orden consistente:

La cara de abajo apunta hacia abajo.
La cara de arriba apunta hacia arriba.
Las caras laterales apuntan hacia afuera.

Por ejemplo, antes tenías:

f 1 10 11

y ahora:

f 1 11 10

Eso no cambia la geometría, solamente cambia hacia dónde apunta la normal.

También corregí la parte de arriba:

f 10 18 11
f 11 18 12
...

para que la cara superior tenga la orientación contraria a la inferior.

Con esto deberías tener el objeto completamente cerrado y visible desde todos sus lados en Unity. Si todavía aparece una parte negra/invisible, el siguiente paso sería revisar el winding específicamente de esa cara.

Ad
antes de que le metieras mano si estaba basate en el orden que te di primero v 0 5.5 0
v 0.5 6 0
v 5.5 6 0
v 6 5.5 0
v 6 0.5 0
v 5.5 0 0
v 0.5 0 0
v 0 0.5 0
v 3 3 0

f 1 9 2
f 2 9 3
f 3 9 4
f 4 9 5
f 5 9 6
f 7 9 6
f 7 9 8
f 1 9 8

v 0 5.5 7
v 0.5 6 7
v 5.5 6 7
v 6 5.5 7
v 6 0.5 7
v 5.5 0 7
v 0.5 0 7
v 0 0.5 7
v 3 3 7

f 10 18 11
f 11 18 12
f 12 18 13
f 13 18 14
f 14 18 15
f 15 18 16
f 16 18 17
f 17 18 10

f 1 11 10
f 1 2 11

f 2 12 11
f 2 3 12

f 3 13 12
f 3 4 13

f 4 14 13
f 4 5 14

f 5 15 14
f 5 6 15

f 6 16 15
f 6 7 16

f 7 17 16
f 7 8 17

f 8 10 17
f 8 1 10

Sí, tienes razón. Ese orden que acabas de poner es el que ya estaba funcionando antes, así que no debí cambiarlo.

Si con ese mismo orden se veía bien y lo único que querías era hacerlo más grande, entonces no debemos tocar ninguna cara (f). Solo hay que cambiar los v.

Tu estructura original es correcta:

f 1 9 2
f 2 9 3
f 3 9 4
...

y las conexiones laterales también.

El problema de mi respuesta anterior fue que intenté corregir las normales aunque tú no me habías dicho que las caras estuvieran mal.

Así que la regla para este modelo debe ser:

Mismos f exactamente → solamente modificar las coordenadas v.

Por ejemplo, si quieres hacerlo más grande, podemos pasar de:

v 0 5.5 0
v 0.5 6 0
v 5.5 6 0
v 6 5.5 0
...

a algo como:

v 0 7 0
v 0.5 7.5 0
v 7 7.5 0
v 7.5 7 0
...

sin tocar ni una sola f.

Si quieres, puedo tomar exactamente el OBJ que acabas de pegar y hacerlo más grande conservando absolutamente todos sus f.

Ad