v 0 6.5 0
v 0.5 7 0
v 6.5 7 0
v 7 6.5 0
v 7 0.5 0
v 6.5 0 0
v 0.5 0 0
v 0 0.5 0
v 3.5 3.5 0

f 1 2 9
f 2 3 9
f 3 4 9
f 4 5 9
f 5 6 9
f 6 7 9
f 7 8 9
f 8 1 9

v 0 6.5 16
v 0.5 7 16
v 6.5 7 16
v 7 6.5 16
v 7 0.5 16
v 6.5 0 16
v 0.5 0 16
v 0 0.5 16
v 3.5 3.5 16

f 10 18 11
f 11 18 12
f 12 18 13
f 13 18 14
f 14 18 15
f 15 18 16
f 16 18 17
f 17 18 10

f 1 10 11
f 1 11 2

f 2 11 12
f 2 12 3

f 3 12 13
f 3 13 4

f 4 13 14
f 4 14 5

f 5 14 15
f 5 15 6

f 6 15 16
f 6 16 7

f 7 16 17
f 7 17 8

f 8 17 10
f 8 10 1