v 0 0 0.50
v 0.35 0 0.35
v 0.50 0 0
v 0.35 0 -0.35
v 0 0 -0.50
v -0.35 0 -0.35
v -0.50 0 0
v -0.35 0 0.35

v 0 0 0.35
v 0.25 0 0.25
v 0.35 0 0
v 0.25 0 -0.25
v 0 0 -0.35
v -0.25 0 -0.25
v -0.35 0 0
v -0.25 0 0.25

v 0 12 0.50
v 0.35 12 0.35
v 0.50 12 0
v 0.35 12 -0.35
v 0 12 -0.50
v -0.35 12 -0.35
v -0.50 12 0
v -0.35 12 0.35

v 0 12 0.35
v 0.25 12 0.25
v 0.35 12 0
v 0.25 12 -0.25
v 0 12 -0.35
v -0.25 12 -0.25
v -0.35 12 0
v -0.25 12 0.25

f 1 2 18
f 1 18 17
f 2 3 19
f 2 19 18
f 3 4 20
f 3 20 19
f 4 5 21
f 4 21 20
f 5 6 22
f 5 22 21
f 6 7 23
f 6 23 22
f 7 8 24
f 7 24 23
f 8 1 17
f 8 17 24

f 9 25 10
f 9 26 25
f 10 26 11
f 11 26 27
f 11 27 12
f 12 27 28
f 12 28 13
f 13 28 29
f 13 29 14
f 14 29 30
f 14 30 15
f 15 30 31
f 15 31 16
f 16 31 32
f 16 32 9
f 9 32 25

f 17 18 26
f 17 26 25
f 18 19 27
f 18 27 26
f 19 20 28
f 19 28 27
f 20 21 29
f 20 29 28
f 21 22 30
f 21 30 29
f 22 23 31
f 22 31 30
f 23 24 32
f 23 32 31
f 24 17 25
f 24 25 32