# Anillo z=0
v 0 -3 0
v -2.598 -1.5 0
v -2.598 1.5 0
v 0 3 0
v 2.598 1.5 0
v 2.598 -1.5 0

v 0 -1.5 0
v -1.299 -0.75 0
v -1.299 0.75 0
v 0 1.5 0
v 1.299 0.75 0
v 1.299 -0.75 0

f 1 2 7
f 7 2 8
f 2 3 8
f 8 3 9
f 3 4 9
f 9 4 10
f 4 5 10
f 10 5 11
f 5 6 11
f 11 6 12
f 6 1 12
f 12 1 7

# Anillo z=2
v 0 -3 2
v -2.598 -1.5 2
v -2.598 1.5 2
v 0 3 2
v 2.598 1.5 2
v 2.598 -1.5 2

v 0 -1.5 2
v -1.299 -0.75 2
v -1.299 0.75 2
v 0 1.5 2
v 1.299 0.75 2
v 1.299 -0.75 2

f 13 19 14
f 19 20 14
f 14 20 15
f 20 21 15
f 15 21 16
f 21 22 16
f 16 22 17
f 22 23 17
f 17 23 18
f 23 24 18
f 18 24 13
f 24 19 13

# Pared exterior
f 1 13 14
f 1 14 2

f 2 14 15
f 2 15 3

f 3 15 16
f 3 16 4

f 4 16 17
f 4 17 5

f 5 17 18
f 5 18 6

f 6 18 13
f 6 13 1

# Pared interior
f 7 20 19
f 7 8 20

f 8 21 20
f 8 9 21

f 9 22 21
f 9 10 22

f 10 23 22
f 10 11 23

f 11 24 23
f 11 12 24

f 12 19 24
f 12 7 19